<svg xmlns="http://www.w3.org/2000/svg" version="1.1" xmlns:xlink="http://www.w3.org/1999/xlink" width="512" height="512" x="0" y="0" viewBox="0 0 512 512" style="enable-background:new 0 0 512 512" xml:space="preserve" class=""><g><path d="M489.42 41.417h-18.837V22.38c0-4.729-3.847-8.575-8.575-8.575h-25.46c-4.729 0-8.575 3.847-8.575 8.575v19.036h-54.028V22.38c0-4.729-3.847-8.575-8.575-8.575h-25.461c-4.729 0-8.575 3.847-8.575 8.575v19.036h-54.027V22.38c0-4.729-3.847-8.575-8.575-8.575H243.27c-4.729 0-8.575 3.847-8.575 8.575v19.036h-54.027V22.38c0-4.729-3.847-8.575-8.575-8.575h-25.461c-4.729 0-8.575 3.847-8.575 8.575v19.036H84.028V22.38c0-4.729-3.847-8.575-8.575-8.575h-25.46c-4.729 0-8.575 3.847-8.575 8.575v19.036H22.58C10.129 41.417 0 51.545 0 63.997v411.618c0 12.45 10.129 22.58 22.58 22.58h101.784c4.142 0 7.5-3.357 7.5-7.5s-3.358-7.5-7.5-7.5H97.845V291.108h67.83v192.087h-6.31c-4.142 0-7.5 3.357-7.5 7.5s3.358 7.5 7.5 7.5H489.42c12.451 0 22.58-10.13 22.58-22.58V63.997c0-12.452-10.129-22.58-22.58-22.58zm-46.447-12.612h12.61v40.223h-12.61zm-96.64 0h12.611v40.223h-12.611zm-96.639 0h12.611v40.223h-12.611zm-96.638 0h12.611v40.223h-12.611zm-96.639 0h12.611v40.223H56.417zM22.58 56.417h18.837v19.036c0 4.729 3.847 8.575 8.575 8.575h25.46c4.729 0 8.575-3.847 8.575-8.575V56.417h54.028v19.036c0 4.729 3.847 8.575 8.575 8.575h25.461c4.729 0 8.575-3.847 8.575-8.575V56.417h54.027v19.036c0 4.729 3.847 8.575 8.575 8.575h25.461c4.729 0 8.575-3.847 8.575-8.575V56.417h54.027v19.036c0 4.729 3.847 8.575 8.575 8.575h25.461c4.729 0 8.575-3.847 8.575-8.575V56.417h54.028v19.036c0 4.729 3.847 8.575 8.575 8.575h25.46c4.729 0 8.575-3.847 8.575-8.575V56.417h18.837c4.18 0 7.58 3.4 7.58 7.58v46.448H141.864c-4.142 0-7.5 3.357-7.5 7.5s3.358 7.5 7.5 7.5h23.811v67.833h-26.42v-32.83c0-4.733-3.851-8.585-8.585-8.585H97.845v-26.418h9.018c4.142 0 7.5-3.357 7.5-7.5s-3.358-7.5-7.5-7.5H15V63.997c0-4.18 3.4-7.58 7.58-7.58zm378.97 385.351v-26.415h54.025v26.415H401.55zm54.025-41.415H373.94v-26.415h81.635zm-88.05-41.415c-4.733 0-8.585 3.852-8.585 8.585v39.244c0 4.734 3.852 8.586 8.585 8.586h19.024v32.829c0 4.734 3.852 8.586 8.586 8.586h19.029v26.427h-67.83V332.523h32.825c4.733 0 8.585-3.852 8.585-8.586v-39.244c0-4.733-3.852-8.585-8.585-8.585h-32.825V125.445h67.83v233.493zM97.84 276.108v-26.415h109.245v26.415zm26.415-109.245v26.415H42.62v-26.415zM70.23 208.278h95.44v26.415H70.23zm178.275-82.833v150.663h-26.42v-32.83c0-4.733-3.851-8.585-8.585-8.585h-32.825V125.445zm65.456 150.663c-4.143 0-7.5 3.357-7.5 7.5s3.357 7.5 7.5 7.5h58.784v26.415h-150.66v-26.415h56.876c4.143 0 7.5-3.357 7.5-7.5s-3.357-7.5-7.5-7.5h-15.456V125.445h67.83v150.663zm-91.876 56.415h67.83v26.415h-67.83zm74.245 41.415c4.733 0 8.585-3.852 8.585-8.586v-32.829h26.42v150.672h-67.83V373.938zM22.58 483.195c-4.18 0-7.58-3.4-7.58-7.58v-350.17h67.845v26.418h-46.64c-4.734 0-8.585 3.852-8.585 8.585v39.244c0 4.734 3.852 8.586 8.585 8.586H55.23v32.829c0 4.734 3.852 8.586 8.585 8.586H82.84c0 40.942.005 67.728.005 233.502zm158.095-192.087h26.41v74.244c0 4.734 3.852 8.586 8.585 8.586h32.834v109.257h-67.83V291.108zM497 475.615c0 4.18-3.4 7.58-7.58 7.58h-60.255v-26.427h32.825c4.733 0 8.585-3.852 8.585-8.586v-80.659c0-4.733-3.852-8.585-8.585-8.585h-32.825V125.445H497z" fill="#585f6d" opacity="1" data-original="#000000"></path></g></svg>