<svg width="512" height="512" viewBox="0 0 512 512" fill="none" xmlns="http://www.w3.org/2000/svg">
<g clip-path="url(#clip0_156850_372)">
<path d="M512 55.7V354.2C512 371.27 498.12 385.15 481.05 385.15H467.12V385.33L509.11 444.76C511.55 448.21 511.72 452.78 509.54 456.4C507.37 460.02 503.24 462.01 499.06 461.48L478.8 458.89L474.47 478.86C473.58 482.98 470.32 486.2 466.19 487.04C465.48 487.18 464.76 487.25 464.06 487.25C460.64 487.25 457.38 485.61 455.36 482.75L418.48 430.55C414.88 433.79 410.61 436.35 405.3 436.35C399.99 436.35 395.72 433.79 392.13 430.55L355.25 482.75C353.23 485.61 349.96 487.25 346.54 487.25C345.84 487.25 345.13 487.18 344.42 487.04C340.28 486.2 337.03 482.98 336.13 478.86L331.8 458.89L311.54 461.48C307.36 462.01 303.24 460.02 301.06 456.4C298.88 452.78 299.05 448.21 301.49 444.76L343.49 385.33C343.48 385.27 343.48 385.21 343.48 385.15H30.95C13.88 385.15 0 371.27 0 354.2V323.77C0 319.63 3.36 316.27 7.5 316.27C11.64 316.27 15 319.63 15 323.77V354.2C15 363 22.16 370.15 30.95 370.15H331.64C327.8 366.26 324.49 361.58 324.49 355.54C324.49 346.96 331.19 341.1 336.57 336.39C339.09 334.19 342.22 331.44 342.94 329.71C343.75 327.76 343.49 323.62 343.27 319.96C342.84 312.96 342.3 304.25 348.16 298.4C354.01 292.54 362.72 293.08 369.72 293.51C373.38 293.73 377.53 293.99 379.47 293.18C381.21 292.46 383.95 289.33 386.15 286.81C390.86 281.43 396.72 274.73 405.3 274.73C413.89 274.73 419.75 281.43 424.45 286.81C426.66 289.33 429.4 292.46 431.13 293.18C433.08 293.99 437.22 293.73 440.88 293.51C447.88 293.08 456.59 292.54 462.44 298.4C468.3 304.26 467.76 312.96 467.33 319.96C467.11 323.62 466.86 327.77 467.66 329.71C468.38 331.45 471.51 334.19 474.03 336.39C479.41 341.1 486.11 346.96 486.11 355.54C486.11 361.58 482.8 366.26 478.96 370.15H481.05C489.84 370.15 497 363 497 354.2V55.7C497 46.9 489.84 39.75 481.05 39.75H30.95C22.16 39.75 15 46.9 15 55.7V293.79C15 297.93 11.64 301.29 7.5 301.29C3.36 301.29 0 297.93 0 293.79V55.7C0 38.63 13.88 24.75 30.95 24.75H481.05C498.12 24.75 512 38.63 512 55.7ZM491.16 445.35L465.29 408.74C464.57 410.15 463.65 411.48 462.44 412.68C456.59 418.54 447.88 418.01 440.88 417.57C437.23 417.35 433.08 417.09 431.13 417.9C430.52 418.16 429.78 418.72 428.99 419.44L461.91 466.02L464.99 451.82C466.17 446.38 471.22 442.8 476.75 443.51L491.16 445.35ZM471.11 355.54C471.11 353.77 466.76 349.95 464.16 347.68C460.08 344.11 455.87 340.43 453.81 335.46C451.67 330.31 452.02 324.58 452.36 319.04C452.54 316.14 452.91 310.08 451.84 309.01C450.76 307.93 444.71 308.3 441.8 308.48C436.26 308.82 430.54 309.17 425.39 307.04C420.42 304.98 416.73 300.76 413.17 296.69C410.89 294.09 407.08 289.73 405.3 289.73C403.52 289.73 399.71 294.09 397.44 296.69C393.87 300.76 390.19 304.98 385.22 307.04C380.07 309.17 374.34 308.82 368.8 308.48C365.89 308.3 359.84 307.93 358.77 309.01C357.69 310.08 358.06 316.13 358.24 319.04C358.58 324.58 358.93 330.31 356.8 335.46C354.73 340.43 350.52 344.11 346.45 347.68C343.84 349.95 339.49 353.76 339.49 355.54C339.49 357.32 343.85 361.13 346.45 363.4C350.52 366.97 354.73 370.65 356.8 375.63C358.93 380.77 358.58 386.5 358.24 392.04C358.06 394.95 357.69 401 358.77 402.08C359.84 403.15 365.89 402.78 368.8 402.6C370.87 402.47 372.97 402.35 375.05 402.35C378.54 402.35 381.99 402.71 385.22 404.05C390.19 406.11 393.88 410.32 397.44 414.39C399.71 417 403.52 421.35 405.3 421.35C407.08 421.35 410.89 417 413.17 414.39C416.73 410.32 420.42 406.11 425.39 404.05C430.53 401.91 436.26 402.26 441.8 402.6C444.71 402.78 450.76 403.15 451.84 402.08C452.91 401 452.54 394.95 452.36 392.04C452.02 386.5 451.67 380.78 453.81 375.63C455.87 370.66 460.08 366.97 464.15 363.41C466.76 361.13 471.11 357.32 471.11 355.54ZM348.7 466.02L381.61 419.44C380.82 418.72 380.08 418.15 379.47 417.9C377.52 417.09 373.38 417.35 369.72 417.57C362.72 418 354.01 418.54 348.16 412.68C346.95 411.48 346.03 410.15 345.31 408.74L319.44 445.35L333.86 443.51C339.38 442.8 344.43 446.38 345.62 451.82L348.7 466.02Z" fill="#1F2937"/>
<path d="M449.28 181.08C453.42 181.08 456.78 184.43 456.78 188.58C456.78 192.72 453.42 196.08 449.28 196.08H369.16C365.02 196.08 361.66 192.72 361.66 188.58C361.66 184.43 365.02 181.08 369.16 181.08H449.28Z" fill="#1F2937"/>
<path d="M449.28 223.58C453.42 223.58 456.78 226.94 456.78 231.08C456.78 235.23 453.42 238.58 449.28 238.58H399.16C395.02 238.58 391.66 235.23 391.66 231.08C391.66 226.94 395.02 223.58 399.16 223.58H449.28Z" fill="#1F2937"/>
<path d="M405.3 321.97C423.81 321.97 438.87 337.03 438.87 355.54C438.87 374.05 423.81 389.11 405.3 389.11C386.79 389.11 371.73 374.05 371.73 355.54C371.73 337.03 386.79 321.97 405.3 321.97ZM423.87 355.54C423.87 345.3 415.54 336.97 405.3 336.97C395.06 336.97 386.73 345.3 386.73 355.54C386.73 365.78 395.06 374.11 405.3 374.11C415.54 374.11 423.87 365.78 423.87 355.54Z" fill="#1F2937"/>
<path d="M416.12 75.6199V94.4199C416.12 103.49 408.74 110.87 399.67 110.87H112.32C103.25 110.87 95.87 103.49 95.87 94.4199V75.6199C95.87 66.5499 103.25 59.1699 112.32 59.1699H148.02C152.16 59.1699 155.52 62.5299 155.52 66.6699C155.52 70.8099 152.16 74.1699 148.02 74.1699H112.32C111.53 74.1699 110.88 74.8199 110.88 75.6199V94.4199C110.88 95.2199 111.52 95.8699 112.32 95.8699H399.67C400.47 95.8699 401.12 95.2199 401.12 94.4199V75.6199C401.12 74.8199 400.47 74.1699 399.67 74.1699H178.01C173.87 74.1699 170.51 70.8099 170.51 66.6699C170.51 62.5199 173.87 59.1699 178.01 59.1699H399.67C408.74 59.1699 416.12 66.5499 416.12 75.6199Z" fill="#1F2937"/>
<path d="M331.6 206.37C331.79 210.51 328.59 214.01 324.45 214.2C320.31 214.41 316.81 211.18 316.62 207.05C315.15 174.57 288.53 149.14 256 149.14C222.54 149.14 195.31 176.37 195.31 209.83C195.31 243.29 222.53 270.52 256 270.52C280.3 270.52 302.2 256.08 311.79 233.74C313.43 229.93 317.83 228.17 321.64 229.8C325.45 231.44 327.21 235.85 325.58 239.65C313.62 267.52 286.31 285.52 256 285.52C214.26 285.52 180.31 251.57 180.31 209.83C180.31 168.09 214.26 134.14 256 134.14C296.57 134.14 329.78 165.87 331.6 206.37Z" fill="#1F2937"/>
<path d="M308.96 330.34C313.11 330.34 316.46 333.69 316.46 337.84C316.46 341.98 313.11 345.34 308.96 345.34C298.32 345.34 292.99 337.3 289.47 331.98C286.12 326.91 284.72 325.34 282.49 325.34C280.25 325.34 278.85 326.91 275.5 331.98C271.98 337.3 266.65 345.34 256.01 345.34C245.36 345.34 240.03 337.3 236.51 331.98C233.16 326.91 231.75 325.34 229.52 325.34C227.29 325.34 225.88 326.92 222.53 331.98C219.01 337.3 213.69 345.34 203.04 345.34C198.89 345.34 195.54 341.98 195.54 337.84C195.54 333.69 198.89 330.34 203.04 330.34C205.27 330.34 206.67 328.76 210.02 323.7C213.55 318.38 218.87 310.34 229.52 310.34C240.17 310.34 245.49 318.38 249.02 323.7C252.37 328.76 253.77 330.34 256.01 330.34C258.24 330.34 259.64 328.76 262.99 323.7C266.51 318.38 271.84 310.34 282.49 310.34C293.13 310.34 298.46 318.38 301.98 323.7C305.33 328.76 306.73 330.34 308.96 330.34Z" fill="#1F2937"/>
<path d="M265.79 202.35C277.64 206.54 284.24 217.53 282.2 229.69C280.65 238.88 273.78 248.19 263.05 251.26V255.11C263.05 259.25 259.7 262.61 255.55 262.61C251.41 262.61 248.05 259.25 248.05 255.11V252C242.89 251.42 238.61 249.86 232.83 246.08C229.37 243.81 228.39 239.17 230.66 235.7C232.93 232.23 237.58 231.26 241.04 233.53C243.87 235.38 245.82 236.35 248.05 236.84V211.42C244.15 209.59 241.17 207.81 238.7 205.87C233.02 201.42 230.43 193.73 231.92 185.81C233.54 177.2 239.54 170.35 247.58 167.93C247.74 167.88 247.9 167.84 248.05 167.8V164.55C248.05 160.41 251.41 157.05 255.55 157.05C259.7 157.05 263.05 160.41 263.05 164.55V166.89C270.62 168.05 275.71 171.23 276.04 171.44C279.54 173.66 280.56 178.3 278.34 181.79C276.12 185.27 271.52 186.3 268.03 184.12C267.83 184 265.95 182.89 263.05 182.14V201.37C263.97 201.7 264.88 202.03 265.79 202.35ZM267.4 227.2C267.76 225.11 267.91 220.37 263.05 217.54V234.69C265.48 232.72 266.95 229.9 267.4 227.2ZM248.05 194.14V185.17C247.14 186.54 246.78 187.96 246.66 188.58C246.22 190.92 246.74 193.12 247.95 194.07C247.99 194.1 248.02 194.12 248.05 194.14Z" fill="#1F2937"/>
<path d="M142.84 181.08C146.98 181.08 150.34 184.43 150.34 188.58C150.34 192.72 146.98 196.08 142.84 196.08H62.72C58.58 196.08 55.22 192.72 55.22 188.58C55.22 184.43 58.58 181.08 62.72 181.08H142.84Z" fill="#1F2937"/>
<path d="M112.84 223.58C116.98 223.58 120.34 226.94 120.34 231.08C120.34 235.23 116.98 238.58 112.84 238.58H62.72C58.58 238.58 55.22 235.23 55.22 231.08C55.22 226.94 58.58 223.58 62.72 223.58H112.84Z" fill="#1F2937"/>
</g>
<defs>
<clipPath id="clip0_156850_372">
<rect width="512" height="512" fill="white"/>
</clipPath>
</defs>
</svg>
