<svg id="Capa_1" enable-background="new 0 0 512 512" height="512" viewBox="0 0 512 512" width="512" xmlns="http://www.w3.org/2000/svg"><g><g><g><path d="m256 512c-68.38 0-132.667-26.629-181.02-74.98-48.351-48.353-74.98-112.64-74.98-181.02s26.629-132.667 74.98-181.02c48.353-48.351 112.64-74.98 181.02-74.98s132.667 26.629 181.02 74.98c48.351 48.353 74.98 112.64 74.98 181.02s-26.629 132.667-74.98 181.02c-48.353 48.351-112.64 74.98-181.02 74.98zm0-490.667c-129.396 0-234.667 105.271-234.667 234.667s105.271 234.666 234.667 234.666 234.666-105.27 234.666-234.666-105.27-234.667-234.666-234.667z"/></g><g><path d="m256 512c-40.12 0-77.334-27.481-104.789-77.381-26.345-47.886-40.854-111.321-40.854-178.619s14.509-130.733 40.854-178.619c27.455-49.9 64.669-77.381 104.789-77.381s77.334 27.481 104.788 77.381c26.346 47.886 40.854 111.321 40.854 178.619s-14.509 130.733-40.854 178.619c-27.454 49.9-64.668 77.381-104.788 77.381zm0-490.667c-31.987 0-62.563 23.557-86.097 66.332-24.642 44.789-38.213 104.571-38.213 168.335s13.571 123.546 38.212 168.335c23.534 42.774 54.11 66.331 86.097 66.331s62.563-23.557 86.097-66.331c24.642-44.789 38.212-104.571 38.212-168.335s-13.57-123.546-38.212-168.335c-23.533-42.775-54.11-66.332-86.096-66.332z"/></g><g><path d="m256 510.443c-5.891 0-10.667-4.776-10.667-10.667v-487.552c0-5.891 4.775-10.667 10.667-10.667 5.891 0 10.667 4.776 10.667 10.667v487.552c0 5.891-4.776 10.667-10.667 10.667z"/></g><g><path d="m499.776 266.667h-487.552c-5.891 0-10.667-4.776-10.667-10.667s4.776-10.667 10.667-10.667h487.552c5.891 0 10.667 4.775 10.667 10.667 0 5.891-4.776 10.667-10.667 10.667z"/></g><g><g><path d="m464.522 139.413h-417.044c-5.891 0-10.667-4.775-10.667-10.667s4.775-10.667 10.667-10.667h417.045c5.891 0 10.667 4.775 10.667 10.667s-4.777 10.667-10.668 10.667z"/></g><g><path d="m464.522 393.92h-417.044c-5.891 0-10.667-4.776-10.667-10.667s4.775-10.667 10.667-10.667h417.045c5.891 0 10.667 4.776 10.667 10.667s-4.777 10.667-10.668 10.667z"/></g></g></g></g></svg>