<svg xmlns="http://www.w3.org/2000/svg" version="1.1" xmlns:xlink="http://www.w3.org/1999/xlink" width="512" height="512" x="0" y="0" viewBox="0 0 500 500" style="enable-background:new 0 0 512 512" xml:space="preserve" class=""><g><g fill-rule="evenodd" clip-rule="evenodd"><path fill="#ad3d03" d="M342.761 245.961h26.058v88.272l-47.944 47.944v68.46a5.36 5.36 0 0 1-5.35 5.351h-15.357a5.362 5.362 0 0 1-5.351-5.351v-79.254l47.944-47.944z" opacity="1" data-original="#60b7fe" class=""></path><path fill="#d94900" d="M143.743 262.922h231.762c-28.307 0-51.255-32.925-51.255-73.54 0-10.287 1.474-20.08 4.133-28.97H96.621c-2.659 8.89-4.133 18.683-4.133 28.97 0 40.615 22.947 73.54 51.255 73.54z" opacity="1" data-original="#cf8c48" class=""></path><path fill="#fa5100" d="M426.734 187.154H194.972c.852 41.139-22.072 75.768-51.229 75.768h231.762c29.149 0 52.055-34.575 51.229-75.768z" opacity="1" data-original="#ffbf31" class=""></path><path fill="#ad3d03" d="M86.119 446.364a6.437 6.437 0 0 1-12.874 0v-18.558a6.437 6.437 0 0 1 12.874 0zm60.935-149.079a6.437 6.437 0 0 1 12.874 0v69.239a6.437 6.437 0 0 1-12.874 0zm0 95.98a6.437 6.437 0 0 1 12.874 0v18.558a6.437 6.437 0 0 1-12.874 0zm-1.253-154.215c-21.468 9.304-35.896 30.574-35.896 54.286v79.25a6.437 6.437 0 0 0 12.874 0v-79.25c0-18.598 11.37-35.282 28.101-42.518a6.408 6.408 0 1 0-5.079-11.768zm-35.896 160.278a6.437 6.437 0 0 1 12.874 0v18.558a6.437 6.437 0 0 1-12.874 0zm-23.786 1.736a6.437 6.437 0 0 1-12.874 0V313.57c0-37.901 19.506-72.727 50.771-93.037a6.416 6.416 0 1 1 6.99 10.762c-27.697 17.991-44.887 48.685-44.887 82.275z" opacity="1" data-original="#60b7fe" class=""></path><g fill="#fa6e85"><path d="M205.724 339.128c14.914 4.59 26.481 21.513 28.848 42.657 2.367-21.144 13.934-38.067 28.848-42.657-14.914-4.59-26.481-21.512-28.848-42.655-2.368 21.143-13.934 38.065-28.848 42.655zM258.569 104.66c11.735 3.716 20.836 17.416 22.698 34.534 1.862-17.117 10.963-30.817 22.698-34.533-11.735-3.716-20.836-17.415-22.698-34.532-1.862 17.116-10.963 30.815-22.698 34.531zM350.565 103.914c18.818 6.447 33.413 30.212 36.399 59.906 2.986-29.693 17.581-53.459 36.4-59.906-18.818-6.445-33.413-30.21-36.4-59.902-2.987 29.691-17.581 53.456-36.399 59.902z" fill="#414871" opacity="1" data-original="#fa6e85" class=""></path></g></g></g></svg>