<svg xmlns="http://www.w3.org/2000/svg" version="1.1" xmlns:xlink="http://www.w3.org/1999/xlink" width="512" height="512" x="0" y="0" viewBox="0 0 512.001 512.001" style="enable-background:new 0 0 512 512" xml:space="preserve" class=""><g><path d="M371.202 32.955H173.475c-13.65 0-24.716 11.066-24.716 24.716v131.818c0 13.65 11.066 24.716 24.716 24.716h65.909l66.236 44.157c3 2 6.941-.548 6.348-4.104l-6.675-40.053h65.909c13.65 0 24.716-11.066 24.716-24.716V57.67c0-13.65-11.066-24.715-24.716-24.715z" style="" fill="#f7ecdd" data-original="#c7cfe2" class="" opacity="1"></path><path d="M148.758 57.67v131.818c0 2.904.593 5.65 1.514 8.239h187.975c22.75 0 41.193-18.443 41.193-41.193V34.468c-2.589-.92-5.334-1.514-8.239-1.514H173.475c-13.65.001-24.717 11.066-24.717 24.716z" style="" fill="#f7ecdd" data-original="#afb9d2" class="" opacity="1"></path><path d="M180.708 384.771c-8.605-22.799-15.429-61.993-16.903-82.398-2.804-38.831-32.068-70.486-71.625-70.486s-68.821 31.655-71.625 70.486c-1.474 20.405-8.299 59.599-16.903 82.398-1.897 5.026.293 10.568 5.242 12.812 9.221 4.179 28.88 12.365 52.59 15.554h61.393c23.599-3.197 43.396-11.387 52.59-15.554 4.95-2.244 7.138-7.786 5.241-12.812z" style="" fill="#d94900" data-original="#5a4146" class="" opacity="1"></path><path d="M175.467 397.582c4.949-2.243 7.138-7.786 5.241-12.812-8.604-22.799-15.429-61.993-16.903-82.398-2.804-38.831-32.068-70.486-71.625-70.486l-.299.001c-30.353.123-41.079 41.518-14.95 56.965 1.57.928 2.575 1.374 2.575 1.374l22.886 122.91h20.484c23.601-3.196 43.397-11.387 52.591-15.554z" style="" fill="#fa5100" data-original="#694b4b" class="" opacity="1"></path><path d="m165.014 433.352-32.586-16.292a20.142 20.142 0 0 1-11.133-18.015l.002-30.209H60.88v30.21c0 7.628-4.31 14.601-11.133 18.012l-32.586 16.293A30.21 30.21 0 0 0 .464 460.37v41.56c0 5.561 4.508 10.069 10.069 10.069h161.111c5.561 0 10.069-4.509 10.069-10.069v-41.559a30.205 30.205 0 0 0-16.699-27.019z" style="" fill="#ffcbbe" data-original="#e6af78" class="" opacity="1"></path><path d="M91.089 409.114c10.843 0 21.227-2.235 30.748-6.214-.25-1.269-.541-2.531-.541-3.855l.002-30.209H60.88v30.21c0 1.33-.291 2.598-.544 3.873 9.527 3.958 19.907 6.195 30.753 6.195z" style="" fill="#ffcbbe" data-original="#d29b6e" class="" opacity="1"></path><path d="M165.014 433.352 141.8 421.745c-10.764 16.622-29.434 27.646-50.711 27.646-21.278 0-39.948-11.025-50.712-27.647l-23.214 11.608A30.208 30.208 0 0 0 .465 460.371v41.56C.465 507.492 4.973 512 10.534 512h161.111c5.561 0 10.069-4.508 10.069-10.069v-41.559a30.212 30.212 0 0 0-16.7-27.02z" style="" fill="#fa5100" data-original="#ff507d" class="" opacity="1"></path><path d="M91.089 388.975c-30.717 0-56.08-22.924-59.915-52.597-.556-4.299 1.511-8.515 5.381-10.467 4.636-2.339 11.373-6.282 17.823-12.037 7.183-6.409 11.397-13.168 13.777-18.129 2.05-4.273 6.761-6.689 11.353-5.518 35.454 9.043 59.591 27.488 68.348 35.018 2.351 2.022 3.706 5.003 3.464 8.095-2.439 31.132-28.474 55.635-60.231 55.635z" style="" fill="#ffddce" data-original="#f0c087" class="" opacity="1"></path><path d="M147.855 325.245c-8.757-7.531-32.894-25.976-68.348-35.019-4.592-1.171-9.304 1.245-11.353 5.518-1.803 3.758-4.781 8.545-9.202 13.432-.001.012-.004.022-.006.034-1.372 1.555-2.832 3.113-4.569 4.664-6.451 5.756-13.187 9.698-17.823 12.037-3.87 1.953-5.936 6.169-5.381 10.468 3.444 26.649 24.298 47.701 50.755 51.747-12.056-8.202-21.048-19.32-21.048-39.428v-14.359c2.287-1.688 4.59-3.373 6.906-5.439 5.596-4.994 10.482-10.771 14.4-16.99 27.122 8.464 45.51 22.56 52.481 28.554 1.908 1.674 6.644 6.038 12.185 11.237 2.384-5.737 3.96-11.892 4.467-18.361.242-3.092-1.113-6.073-3.464-8.095z" style="" fill="#ffcbbe" data-original="#e6af78" class="" opacity="1"></path><path d="M6.602 442.219C2.723 447.366.463 453.682.463 460.371v41.56C.463 507.492 4.971 512 10.532 512h30.209v-32.79a20.14 20.14 0 0 0-7.558-15.726L6.602 442.219zM175.575 442.219c3.879 5.147 6.139 11.463 6.139 18.152v41.56c0 5.561-4.508 10.069-10.069 10.069h-30.208v-32.79a20.14 20.14 0 0 1 7.558-15.726l26.58-21.265z" style="" fill="#d94900" data-original="#d23c69" class="" opacity="1"></path><path d="M343.47 279.671v6.938c0 8.501 1.37 16.946 4.059 25.011l15.714 47.142h29.659v-108.75h-19.773c-16.38 0-29.659 13.279-29.659 29.659z" style="" fill="#d94900" data-original="#5a4146" class="" opacity="1"></path><path d="m478.836 300.208-16.73 58.554-79.091-69.204c-10.92 0-19.773-8.853-19.773-19.773 0-16.38 13.279-29.659 29.659-29.659h69.204c10.92 0 19.773 8.853 19.773 19.773v18.582a79.045 79.045 0 0 1-3.042 21.727z" style="" fill="#fa5100" data-original="#694b4b" class="" opacity="1"></path><path d="M383.011 388.42h59.32v43.756h-59.32z" style="" fill="#ffcbbe" data-original="#e6af78" class="" opacity="1"></path><path d="M383.016 406.581c9.169 3.725 19.168 5.823 29.659 5.823s20.49-2.097 29.659-5.823v-18.16h-59.318v18.16z" style="" fill="#ffcbbe" data-original="#d29b6e" class="" opacity="1"></path><path d="m490.027 426.031-47.696-13.626-29.656 19.681-29.659-19.681-47.694 13.627a29.659 29.659 0 0 0-21.511 28.518v47.565c0 5.46 4.426 9.886 9.886 9.886h177.954c5.46 0 9.886-4.426 9.886-9.886v-47.564a29.657 29.657 0 0 0-21.51-28.52z" style="" fill="#fa5100" data-original="#00aaf0" class="" opacity="1"></path><path d="M422.561 512h-19.773l4.944-79.823h9.886z" style="" fill="#ad3d03" data-original="#707487" class="" opacity="1"></path><path d="M412.675 398.307c-32.761 0-59.318-26.558-59.318-59.318v-11.583a19.772 19.772 0 0 1 5.791-13.981l17.927-17.927c3.796-3.796 8.988-5.979 14.353-5.81 31.603.997 59.576 7.767 74.867 22.702 3.743 3.656 5.697 8.77 5.697 14.002v12.597c.001 32.76-26.557 59.318-59.317 59.318z" style="" fill="#ffddce" data-original="#f0c087" class="" opacity="1"></path><path d="M383.016 329.859c0-11.405 9.577-20.47 20.959-19.744 19.959 1.273 49.574 4.609 67.744 13.349-.593-4.171-2.385-8.108-5.422-11.075-15.291-14.935-43.264-21.705-74.868-22.702l-.001.001-.001-.001c-5.365-.169-10.556 2.015-14.352 5.81l-17.927 17.927a19.77 19.77 0 0 0-5.792 13.982v11.583c0 27.052 18.126 49.828 42.882 56.961-8.24-10.167-13.223-23.072-13.223-37.188l.001-28.903z" style="" fill="#ffcbbe" data-original="#e6af78" class="" opacity="1"></path><path d="M353.357 484.007a29.66 29.66 0 0 0-8.687-20.972l-25.449-25.449c-3.401 4.862-5.41 10.715-5.41 16.963v47.565c0 5.46 4.426 9.886 9.886 9.886h29.659v-27.993h.001zM471.993 484.007a29.66 29.66 0 0 1 8.687-20.972l25.449-25.449c3.401 4.862 5.41 10.715 5.41 16.963v47.565c0 5.46-4.426 9.886-9.886 9.886h-29.659v-27.993h-.001z" style="" fill="#d94900" data-original="#0096dc" class="" opacity="1"></path><path d="M418.442 451.949h-11.534a4.119 4.119 0 0 1-4.119-4.119v-15.653h19.773v15.653a4.12 4.12 0 0 1-4.12 4.119z" style="" fill="#ad3d03" data-original="#5b5d6e" class="" opacity="1"></path><path d="m412.675 432.085-16.757 12.8c-2.887 2.205-7.059 1.321-8.804-1.865l-15.031-27.452 6.05-9.229a3.954 3.954 0 0 1 5.996-.731l28.546 26.477zM412.675 432.085l16.757 12.8c2.887 2.205 7.059 1.321 8.804-1.865l15.031-27.452-6.05-9.229a3.954 3.954 0 0 0-5.996-.731l-28.546 26.477z" style="" fill="#d94900" data-original="#0096dc" class="" opacity="1"></path><path d="M338.247 0H107.566C93.916 0 82.85 11.066 82.85 24.716v131.818c0 13.65 11.066 24.716 24.716 24.716h90.625l-13.728 54.91c-.933 3.733 3.307 6.594 6.419 4.331l81.456-59.241h65.909c13.65 0 24.716-11.066 24.716-24.716V24.716C362.963 11.066 351.898 0 338.247 0z" style="" fill="#fdf5eb" data-original="#e2e7f2" class="" opacity="1"></path><path d="M165.236 57.67H140.52c-4.554 0-8.239-3.689-8.239-8.239s3.685-8.239 8.239-8.239h24.716c4.554 0 8.239 3.689 8.239 8.239s-3.685 8.239-8.239 8.239z" style="" fill="#d94900" data-original="#d23c69" class="" opacity="1"></path><path d="M305.293 57.67H198.191c-4.554 0-8.239-3.689-8.239-8.239s3.685-8.239 8.239-8.239h107.102c4.554 0 8.239 3.689 8.239 8.239s-3.685 8.239-8.239 8.239z" style="" fill="#fa5100" data-original="#ff507d" class="" opacity="1"></path><path d="M305.293 98.864H140.52a8.237 8.237 0 0 1-8.239-8.239 8.237 8.237 0 0 1 8.239-8.239h164.773a8.237 8.237 0 0 1 8.239 8.239 8.237 8.237 0 0 1-8.239 8.239z" style="" fill="#7f8499" data-original="#7f8499" class=""></path><path d="M247.622 140.057H140.52c-4.554 0-8.239-3.689-8.239-8.239s3.685-8.239 8.239-8.239h107.102a8.237 8.237 0 0 1 8.239 8.239 8.237 8.237 0 0 1-8.239 8.239z" style="" fill="#ad3d03" data-original="#707487" class="" opacity="1"></path><path d="M305.293 140.057h-24.716c-4.554 0-8.239-3.689-8.239-8.239s3.685-8.239 8.239-8.239h24.716a8.237 8.237 0 0 1 8.239 8.239 8.237 8.237 0 0 1-8.239 8.239z" style="" fill="#7f8499" data-original="#7f8499" class=""></path></g></svg>