<svg xmlns="http://www.w3.org/2000/svg" version="1.1" xmlns:xlink="http://www.w3.org/1999/xlink" width="512" height="512" x="0" y="0" viewBox="0 0 682.667 682.667" style="enable-background:new 0 0 512 512" xml:space="preserve" class=""><g><defs><clipPath id="a" clipPathUnits="userSpaceOnUse"><path d="M0 512h512V0H0Z" fill="#1e252f" opacity="1" data-original="#000000"></path></clipPath></defs><g clip-path="url(#a)" transform="matrix(1.33333 0 0 -1.33333 0 682.667)"><path d="M0 0v0c-14.235 0-25.775 11.54-25.775 25.774v79.839c0 14.235 11.54 25.774 25.775 25.774v0c14.235 0 25.774-11.539 25.774-25.774V25.774C25.774 11.54 14.235 0 0 0Z" style="stroke-width:20;stroke-linecap:round;stroke-linejoin:round;stroke-miterlimit:10;stroke-dasharray:none;stroke-opacity:1" transform="translate(281.775 361.045)" fill="none" stroke="#1e252f" stroke-width="20" stroke-linecap="round" stroke-linejoin="round" stroke-miterlimit="10" stroke-dasharray="none" stroke-opacity="" data-original="#000000" opacity="1"></path><path d="M0 0v0c-14.235 0-25.774 11.54-25.774 25.774v62.113c0 14.235 11.539 25.775 25.774 25.775 14.235 0 25.775-11.54 25.775-25.775V25.774C25.775 11.54 14.235 0 0 0Z" style="stroke-width:20;stroke-linecap:round;stroke-linejoin:round;stroke-miterlimit:10;stroke-dasharray:none;stroke-opacity:1" transform="translate(333.324 361.045)" fill="none" stroke="#1e252f" stroke-width="20" stroke-linecap="round" stroke-linejoin="round" stroke-miterlimit="10" stroke-dasharray="none" stroke-opacity="" data-original="#000000" opacity="1"></path><path d="M0 0v0c-14.235 0-25.775 11.54-25.775 25.774v79.839c0 14.235 11.54 25.774 25.775 25.774s25.774-11.539 25.774-25.774V25.774C25.774 11.54 14.235 0 0 0Z" style="stroke-width:20;stroke-linecap:round;stroke-linejoin:round;stroke-miterlimit:10;stroke-dasharray:none;stroke-opacity:1" transform="translate(230.226 361.045)" fill="none" stroke="#1e252f" stroke-width="20" stroke-linecap="round" stroke-linejoin="round" stroke-miterlimit="10" stroke-dasharray="none" stroke-opacity="" data-original="#000000" opacity="1"></path><path d="M0 0v-62.858c0-29.921-8.979-59.154-25.775-83.916v-51.21" style="stroke-width:20;stroke-linecap:round;stroke-linejoin:round;stroke-miterlimit:10;stroke-dasharray:none;stroke-opacity:1" transform="translate(359.099 381.984)" fill="none" stroke="#1e252f" stroke-width="20" stroke-linecap="round" stroke-linejoin="round" stroke-miterlimit="10" stroke-dasharray="none" stroke-opacity="" data-original="#000000" opacity="1"></path><path d="M0 0v51.209l-28.373 30.284a82.22 82.22 0 0 0-22.22 56.215v41.501c0 20.435 16.566 37 37 37h55.88a9.262 9.262 0 0 0 9.262-9.262c0-25.813-20.925-46.738-46.737-46.738H0l2.5-.897c29.423-10.559 49.049-38.455 49.049-69.715" style="stroke-width:20;stroke-linecap:round;stroke-linejoin:round;stroke-miterlimit:10;stroke-dasharray:none;stroke-opacity:1" transform="translate(152.901 184)" fill="none" stroke="#1e252f" stroke-width="20" stroke-linecap="round" stroke-linejoin="round" stroke-miterlimit="10" stroke-dasharray="none" stroke-opacity="" data-original="#000000" opacity="1"></path><path d="M333.324 232H152.902v-48h180.422z" style="stroke-width:20;stroke-linecap:round;stroke-linejoin:round;stroke-miterlimit:10;stroke-dasharray:none;stroke-opacity:1" fill="none" stroke="#1e252f" stroke-width="20" stroke-linecap="round" stroke-linejoin="round" stroke-miterlimit="10" stroke-dasharray="none" stroke-opacity="" data-original="#000000" opacity="1"></path><path d="M0 0v41.838h-200v-174H0V-90" style="stroke-width:20;stroke-linecap:round;stroke-linejoin:round;stroke-miterlimit:10;stroke-dasharray:none;stroke-opacity:1" transform="translate(343.113 142.162)" fill="none" stroke="#1e252f" stroke-width="20" stroke-linecap="round" stroke-linejoin="round" stroke-miterlimit="10" stroke-dasharray="none" stroke-opacity="" data-original="#000000" opacity="1"></path><path d="M0 0h16.541c11.713-21.325 34.383-35.889 60.431-35.889 31.087 0 57.349 20.594 65.929 48.879H91.5c-11.06 0-20.025 8.966-20.025 20.025 0 11.06 8.965 20.026 20.025 20.026h51.395c-8.89 29.301-36.751 50.352-69.3 48.798C48.76 100.653 27.52 86.57 16.389 66.03H-6.559" style="stroke-width:20;stroke-linecap:round;stroke-linejoin:round;stroke-miterlimit:10;stroke-dasharray:none;stroke-opacity:1" transform="translate(359.099 400.08)" fill="none" stroke="#1e252f" stroke-width="20" stroke-linecap="round" stroke-linejoin="round" stroke-miterlimit="10" stroke-dasharray="none" stroke-opacity="" data-original="#000000" opacity="1"></path><path d="M0 0h-16.541c-11.713 21.325-34.383 35.889-60.431 35.889-31.087 0-57.349-20.594-65.929-48.879H-91.5c11.06 0 20.025-8.966 20.025-20.025 0-11.06-8.965-20.026-20.025-20.026h-51.395c8.89-29.301 36.751-50.352 69.3-48.798 8.343.399 16.28 2.252 23.564 5.317" style="stroke-width:20;stroke-linecap:round;stroke-linejoin:round;stroke-miterlimit:10;stroke-dasharray:none;stroke-opacity:1" transform="translate(152.901 466.11)" fill="none" stroke="#1e252f" stroke-width="20" stroke-linecap="round" stroke-linejoin="round" stroke-miterlimit="10" stroke-dasharray="none" stroke-opacity="" data-original="#000000" opacity="1"></path><path d="M0 0v66.578c0 14.235 11.54 25.774 25.775 25.774s25.774-11.539 25.774-25.774v-79.839" style="stroke-width:20;stroke-linecap:round;stroke-linejoin:round;stroke-miterlimit:10;stroke-dasharray:none;stroke-opacity:1" transform="translate(152.901 400.08)" fill="none" stroke="#1e252f" stroke-width="20" stroke-linecap="round" stroke-linejoin="round" stroke-miterlimit="10" stroke-dasharray="none" stroke-opacity="" data-original="#000000" opacity="1"></path><path d="M0 0v0" style="stroke-width:20;stroke-linecap:round;stroke-linejoin:round;stroke-miterlimit:10;stroke-dasharray:none;stroke-opacity:1" transform="translate(343.113 97.162)" fill="none" stroke="#1e252f" stroke-width="20" stroke-linecap="round" stroke-linejoin="round" stroke-miterlimit="10" stroke-dasharray="none" stroke-opacity="" data-original="#000000" opacity="1"></path></g></g></svg>