<svg width="512" height="512" viewBox="0 0 512 512" fill="none" xmlns="http://www.w3.org/2000/svg">
<path d="M457.908 163.908C462.05 163.908 465.408 160.551 465.408 156.408V96.7247C465.408 84.5467 455.5 74.6397 443.322 74.6397C384.371 74.6397 326.964 53.8548 281.676 16.1147L267.204 4.05675C260.713 -1.35225 251.289 -1.35225 244.798 4.05675L230.327 16.1157C185.039 53.8558 127.632 74.6397 68.681 74.6397C56.503 74.6397 46.596 84.5467 46.596 96.7247V216.671C46.596 276.477 63.633 334.717 95.866 385.093C128.099 435.47 173.839 475.345 228.14 500.407L250.765 510.85C252.429 511.618 254.215 512.001 256.001 512.001C257.788 512.001 259.575 511.617 261.24 510.849L283.864 500.407C338.166 475.345 383.906 435.469 416.138 385.093C448.371 334.717 465.408 276.477 465.408 216.671V191.407C465.408 187.264 462.05 183.907 457.908 183.907C453.766 183.907 450.408 187.264 450.408 191.407V216.671C450.408 332.304 382.568 438.331 277.577 486.788L256.001 496.747L234.425 486.788C129.435 438.332 61.595 332.304 61.595 216.672V96.7247C61.595 92.8187 64.774 89.6397 68.681 89.6397C131.134 89.6397 191.952 67.6198 239.93 27.6388L254.401 15.5798C255.329 14.8077 256.674 14.8077 257.602 15.5798L272.073 27.6388C320.052 67.6208 380.869 89.6397 443.323 89.6397C447.23 89.6397 450.408 92.8187 450.408 96.7247V156.408C450.408 160.551 453.766 163.908 457.908 163.908Z" fill="#1F2937"/>
<path d="M150.207 125.436C154.207 124.36 156.577 120.245 155.5 116.245C154.423 112.245 150.308 109.876 146.309 110.952C131.83 114.849 116.945 117.677 102.069 119.354C97.007 119.925 93.19 124.193 93.19 129.282V216.672C93.19 267.56 107.687 317.116 135.114 359.983C162.541 402.848 201.461 436.778 247.667 458.104L252.859 460.5C253.856 460.96 254.929 461.19 256.002 461.19C257.075 461.19 258.148 460.96 259.146 460.5L264.339 458.103C310.544 436.778 349.464 402.849 376.891 359.983C404.318 317.117 418.815 267.56 418.815 216.672V129.282C418.815 124.193 414.998 119.926 409.936 119.354C356.178 113.289 305.041 92.7786 262.054 60.0416C258.492 57.3286 253.515 57.3286 249.952 60.0416C228.32 76.5156 204.498 89.9766 179.148 100.049C175.299 101.578 173.418 105.939 174.947 109.788C176.477 113.637 180.835 115.519 184.687 113.988C210.125 103.881 234.099 90.5226 256.002 74.2586C299.312 106.419 350.25 126.911 403.814 133.727V216.671C403.814 264.689 390.135 311.449 364.255 351.898C338.375 392.345 301.651 424.361 258.051 444.483L256.001 445.429L253.952 444.484C210.352 424.361 173.627 392.345 147.747 351.898C121.867 311.45 108.188 264.689 108.188 216.671V133.727C122.329 131.925 136.443 129.141 150.207 125.436Z" fill="#1F2937"/>
<path d="M280.46 165.971C264.56 161.821 247.442 161.821 231.544 165.971C223.979 167.945 218.694 174.759 218.694 182.544V220.362C218.694 221.517 217.754 222.458 216.598 222.458H178.779C170.995 222.458 164.18 227.742 162.206 235.308C160.131 243.258 159.079 251.487 159.079 259.766C159.079 268.045 160.131 276.274 162.206 284.224C164.18 291.789 170.995 297.074 178.779 297.074H216.598C217.754 297.074 218.694 298.014 218.694 299.17V336.988C218.694 344.773 223.978 351.588 231.543 353.561C239.493 355.636 247.722 356.688 256.001 356.688C264.28 356.688 272.509 355.636 280.459 353.561C288.024 351.587 293.309 344.773 293.309 336.988V299.17C293.309 298.015 294.249 297.074 295.405 297.074H333.224C341.008 297.074 347.823 291.79 349.797 284.224C351.872 276.274 352.924 268.045 352.924 259.766C352.924 251.487 351.872 243.258 349.797 235.308C347.823 227.743 341.008 222.458 333.224 222.458H295.405C294.249 222.458 293.309 221.518 293.309 220.362V182.544C293.308 174.76 288.024 167.945 280.46 165.971ZM295.405 237.459H333.224C334.185 237.459 335.032 238.132 335.283 239.096C337.035 245.811 337.924 252.765 337.924 259.767C337.924 266.769 337.035 273.723 335.283 280.438C335.032 281.402 334.185 282.075 333.224 282.075H295.405C285.978 282.075 278.309 289.744 278.309 299.171V336.989C278.309 337.95 277.636 338.797 276.672 339.049C263.244 342.553 248.76 342.553 235.33 339.049C234.367 338.797 233.694 337.95 233.694 336.989V299.17C233.694 289.743 226.025 282.074 216.598 282.074H178.779C177.818 282.074 176.971 281.401 176.72 280.437C174.968 273.722 174.079 266.768 174.079 259.766C174.079 252.764 174.968 245.81 176.72 239.095C176.971 238.131 177.818 237.458 178.779 237.458H216.598C226.025 237.458 233.694 229.789 233.694 220.362V182.544C233.694 181.583 234.367 180.736 235.331 180.484C248.759 176.98 263.243 176.98 276.673 180.484C277.636 180.736 278.309 181.583 278.309 182.544V220.362C278.308 229.79 285.978 237.459 295.405 237.459Z" fill="#1F2937"/>
</svg>
