<svg width="512" height="512" viewBox="0 0 512 512" fill="none" xmlns="http://www.w3.org/2000/svg">
<path d="M258.773 181.506H66.789C62.647 181.506 59.29 184.864 59.29 189.005C59.29 193.147 62.647 196.504 66.789 196.504H258.774C262.916 196.504 266.273 193.146 266.273 189.005C266.273 184.864 262.916 181.506 258.773 181.506Z" fill="#1F2937"/>
<path d="M258.773 234.202H66.789C62.647 234.202 59.29 237.56 59.29 241.701C59.29 245.842 62.647 249.2 66.789 249.2H258.774C262.916 249.2 266.273 245.842 266.273 241.701C266.273 237.56 262.916 234.202 258.773 234.202Z" fill="#1F2937"/>
<path d="M258.773 286.897H66.789C62.647 286.897 59.29 290.255 59.29 294.396C59.29 298.537 62.647 301.895 66.789 301.895H258.774C262.916 301.895 266.273 298.537 266.273 294.396C266.273 290.255 262.916 286.897 258.773 286.897Z" fill="#1F2937"/>
<path d="M266.273 347.093C266.273 342.951 262.916 339.594 258.774 339.594H66.789C62.647 339.594 59.29 342.952 59.29 347.093C59.29 351.234 62.647 354.592 66.789 354.592H258.774C262.916 354.592 266.273 351.235 266.273 347.093Z" fill="#1F2937"/>
<path d="M66.789 416.821C62.647 416.821 59.29 420.179 59.29 424.32C59.29 428.461 62.647 431.819 66.789 431.819H163.027C167.169 431.819 170.526 428.461 170.526 424.32C170.526 420.179 167.169 416.821 163.027 416.821H66.789Z" fill="#1F2937"/>
<path d="M345.194 92.853V68.519C345.194 59.249 337.653 51.707 328.382 51.707H174.415C165.145 51.707 157.604 59.249 157.604 68.519V92.853C157.604 102.123 165.145 109.664 174.415 109.664H187.417C191.559 109.664 194.916 106.306 194.916 102.165C194.916 98.023 191.559 94.666 187.417 94.666H174.415C173.416 94.666 172.603 93.853 172.603 92.854V68.519C172.603 67.52 173.416 66.706 174.415 66.706H328.382C329.382 66.706 330.195 67.519 330.195 68.519V92.853C330.195 93.852 329.382 94.665 328.382 94.665H222.477C218.335 94.665 214.978 98.023 214.978 102.164C214.978 106.306 218.335 109.663 222.477 109.663H328.383C337.653 109.665 345.194 102.123 345.194 92.853Z" fill="#1F2937"/>
<path d="M401.268 457.296C397.126 457.296 393.769 460.654 393.769 464.795V474.894C393.769 487.083 383.852 497.001 371.661 497.001H39.899C27.71 497.001 17.792 487.084 17.792 474.894V114.428C17.792 112.805 17.982 111.213 18.321 109.664H86.604C100.86 109.664 112.458 98.066 112.458 83.81V15.528C114.007 15.189 115.598 14.999 117.221 14.999H371.66C383.85 14.999 393.768 24.916 393.768 37.106V136.948C393.768 141.09 397.125 144.447 401.267 144.447C405.409 144.447 408.766 141.089 408.766 136.948V37.105C408.767 16.646 392.121 0 371.661 0H117.222C107.311 0 97.992 3.86 90.984 10.868L13.661 88.191C6.65301 95.199 2.79401 104.517 2.79401 114.429V474.895C2.79401 495.355 19.439 512 39.899 512H371.661C392.121 512 408.767 495.354 408.767 474.895V464.796C408.767 460.654 405.41 457.296 401.268 457.296ZM97.46 25.604V83.81C97.46 89.796 92.59 94.666 86.604 94.666H28.398L97.46 25.604Z" fill="#1F2937"/>
<path d="M503.982 267.999C509.246 260.272 510.608 250.741 507.719 241.849C504.83 232.957 498.125 226.047 489.325 222.891C483.487 220.797 479.592 215.437 479.406 209.237C479.123 199.892 474.622 191.38 467.057 185.884C459.494 180.389 450.006 178.74 441.034 181.358C435.076 183.096 428.779 181.048 424.983 176.143C419.262 168.748 410.618 164.507 401.268 164.507C391.919 164.507 383.274 168.748 377.552 176.143C373.756 181.049 367.455 183.094 361.502 181.358C352.529 178.738 343.042 180.389 335.477 185.884C327.913 191.38 323.414 199.891 323.13 209.236C322.943 215.436 319.049 220.795 313.21 222.89C304.41 226.046 297.705 232.957 294.817 241.848C291.928 250.74 293.29 260.272 298.554 267.998C302.046 273.125 302.046 279.749 298.554 284.875C293.29 292.602 291.928 302.133 294.817 311.025C297.705 319.917 304.41 326.827 313.21 329.984C319.049 332.079 322.944 337.438 323.13 343.638C323.391 352.234 327.33 360.311 333.94 365.796C338.301 369.416 343.54 371.681 349.023 372.438V440.716C349.023 446.477 352.148 451.802 357.177 454.611C362.2 457.418 368.375 457.293 373.284 454.27L400.789 437.338C401.237 437.061 401.504 437.186 401.751 437.338L429.254 454.27C434.161 457.29 440.334 457.42 445.362 454.61C450.392 451.8 453.516 446.475 453.516 440.715V372.436C458.997 371.68 464.236 369.415 468.597 365.796C475.208 360.311 479.148 352.235 479.409 343.637C479.595 337.437 483.49 332.077 489.328 329.983C498.129 326.827 504.834 319.916 507.722 311.024C510.611 302.132 509.249 292.601 503.985 284.874C500.489 279.75 500.489 273.126 503.982 267.999ZM437.115 441.498L409.611 424.566C404.498 421.419 398.042 421.414 392.924 424.566L365.42 441.497C364.794 441.878 364.021 441.439 364.021 440.715V371.014C369.177 370.417 374.289 372.515 377.552 376.732C383.275 384.126 391.919 388.367 401.269 388.367C410.618 388.367 419.262 384.126 424.983 376.732C428.247 372.514 433.36 370.417 438.515 371.014V440.715C438.515 441.444 437.732 441.879 437.115 441.498ZM491.587 293.322C494.219 297.184 494.899 301.947 493.455 306.391C492.011 310.835 488.66 314.289 484.261 315.867C472.579 320.057 464.789 330.78 464.414 343.185C464.281 347.546 462.364 351.477 459.017 354.255C455.254 357.378 450.158 358.556 445.236 357.12C433.323 353.644 420.716 357.74 413.12 367.554C410.261 371.249 405.94 373.369 401.267 373.369C396.595 373.369 392.274 371.25 389.413 367.554C383.614 360.058 374.893 355.898 365.79 355.898C362.972 355.898 360.116 356.297 357.3 357.119C352.33 358.567 347.249 357.353 343.516 354.254C340.169 351.476 338.252 347.545 338.121 343.185C337.745 330.78 329.955 320.057 318.272 315.866C313.874 314.288 310.524 310.835 309.079 306.391C307.635 301.947 308.315 297.183 310.947 293.321C317.934 283.064 317.934 269.811 310.947 259.554C308.315 255.692 307.635 250.928 309.079 246.483C310.523 242.039 313.874 238.585 318.272 237.008C329.955 232.817 337.745 222.094 338.121 209.689C338.262 205.018 340.51 200.764 344.291 198.018C348.07 195.271 352.81 194.447 357.299 195.755C369.209 199.232 381.819 195.135 389.413 185.321C392.273 181.625 396.593 179.505 401.267 179.505C405.94 179.505 410.26 181.624 413.12 185.32C420.715 195.135 433.319 199.231 445.235 195.755C449.721 194.445 454.461 195.27 458.242 198.017C462.023 200.763 464.273 205.018 464.413 209.688C464.789 222.093 472.579 232.817 484.261 237.007C488.66 238.584 492.01 242.038 493.455 246.482C494.899 250.926 494.219 255.691 491.587 259.552C484.598 269.81 484.598 283.065 491.587 293.322Z" fill="#1F2937"/>
<path d="M401.268 213.583C366.61 213.583 338.414 241.779 338.414 276.437C338.414 311.095 366.61 339.291 401.268 339.291C435.925 339.291 464.121 311.095 464.121 276.437C464.121 241.779 435.925 213.583 401.268 213.583ZM401.268 324.293C374.88 324.293 353.412 302.825 353.412 276.438C353.412 250.051 374.88 228.582 401.268 228.582C427.656 228.582 449.123 250.05 449.123 276.438C449.123 302.826 427.655 324.293 401.268 324.293Z" fill="#1F2937"/>
</svg>
