<svg width="100" height="50" viewBox="0 0 100 50" fill="none" xmlns="http://www.w3.org/2000/svg">
<path d="M70.775 49.8566C69.3125 49.5322 68.2009 48.511 67.809 47.1316C67.6787 46.6728 67.6334 45.8143 67.7113 45.2813C67.8334 44.446 68.2175 43.6775 68.8034 43.0961C69.5617 42.3437 70.5258 41.9592 71.6444 41.9632C72.9999 41.9683 74.0861 42.4974 74.806 43.5036C75.2966 44.1894 75.5389 44.9109 75.6625 46.054L75.692 46.3268H72.4817H69.2713L69.305 46.5258C69.4025 47.1032 69.6636 47.5998 70.0818 48.0035C70.6051 48.5088 71.1086 48.6992 71.9208 48.6992C72.7998 48.6992 73.4481 48.4359 74.0374 47.8396L74.4061 47.4665L75.0211 47.7389C75.3593 47.8886 75.6364 48.0337 75.6369 48.0613C75.6386 48.1557 75.1154 48.7446 74.819 48.9821C74.4591 49.2705 73.7012 49.6554 73.2179 49.7952C72.7393 49.9336 71.287 49.9701 70.775 49.8566ZM74.1194 45.2192C74.1194 45.0538 73.9064 44.5631 73.708 44.2713C72.8471 43.0055 71.1298 42.7841 70.0908 43.805C69.9408 43.9524 69.7573 44.1772 69.6831 44.3046C69.5418 44.5469 69.3271 45.0954 69.3271 45.2139C69.3271 45.2734 69.6583 45.2829 71.7233 45.2829C73.6974 45.2829 74.1194 45.2717 74.1194 45.2192ZM41.5391 49.8335C40.5924 49.6753 39.7965 49.0059 39.5302 48.1438C39.3493 47.5579 39.4296 46.8341 39.7329 46.3166C40.0487 45.778 40.8209 45.2716 41.5701 45.1119C42.3079 44.9547 43.2886 45.1291 43.9954 45.5433L44.2746 45.707V45.1177C44.2746 44.2094 44.1667 43.8405 43.8055 43.5142C43.5207 43.2569 43.1992 43.1793 42.5233 43.2049C42.0508 43.2228 41.9361 43.2436 41.7086 43.3525C41.4687 43.4673 41.1533 43.7379 40.9847 43.9736C40.9218 44.0616 40.9038 44.0599 40.2843 43.9077C39.9345 43.8217 39.6228 43.7381 39.5916 43.7219C39.5023 43.6756 39.7823 43.2641 40.1485 42.9032C40.5706 42.4873 41.16 42.1884 41.831 42.0499C42.2263 41.9683 42.4163 41.9561 42.9698 41.9765C43.6989 42.0034 44.0436 42.0757 44.4985 42.297C45.0244 42.5528 45.3822 43.0141 45.584 43.6964C45.657 43.9432 45.6696 44.2557 45.6856 46.22L45.7039 48.462H46.3415H46.9792V49.1025V49.7431H45.698H44.417V49.2923C44.417 49.0444 44.4042 48.8415 44.3887 48.8415C44.3731 48.8415 44.261 48.9291 44.1396 49.0361C43.6626 49.4564 43.0658 49.7352 42.4327 49.8334C42.0545 49.8921 41.89 49.8921 41.5391 49.8335ZM42.8277 48.6734C43.221 48.571 43.6387 48.3554 43.9819 48.0776L44.2746 47.8408V47.3731V46.9054L44.0164 46.734C43.1793 46.1784 42.2622 45.9998 41.646 46.2723C41.3767 46.3915 41.0658 46.6755 40.9445 46.9132C40.805 47.1867 40.78 47.5853 40.8829 47.8951C40.9877 48.2107 41.3217 48.5593 41.62 48.6647C41.8948 48.7617 42.4728 48.7659 42.8277 48.6734ZM56.7586 49.8348C56.2118 49.7376 55.8014 49.3889 55.6293 48.875C55.5555 48.6548 55.5448 48.3493 55.5309 46.054L55.5152 43.4799H55.0193H54.5234V42.8156V42.1514H55.0216H55.5198L55.5201 41.6176L55.5205 41.0838L56.2164 40.633C56.5992 40.3851 56.9246 40.1769 56.9397 40.1704C56.9547 40.1638 56.9669 40.6016 56.9669 41.1431V42.1277L57.6668 42.1408L58.3667 42.1539V42.8156V43.4774L57.6668 43.4905L56.9669 43.5036V45.6387C56.9669 46.8131 56.984 47.8734 57.0048 47.9951C57.0515 48.2674 57.2157 48.4435 57.462 48.4851C57.6237 48.5124 58.1187 48.452 58.2985 48.383C58.3558 48.3611 58.3667 48.4626 58.3667 49.0184V49.68L58.0385 49.7592C57.6168 49.861 57.0834 49.8925 56.7586 49.8348ZM85.3898 49.8359C85.0497 49.7826 84.5694 49.6291 84.263 49.4757C84.1399 49.4141 84.0278 49.3637 84.0139 49.3637C84 49.3637 83.9886 49.4491 83.9886 49.5535V49.7433H83.3362H82.6838V48.4622V47.1811H83.3362H83.9886V47.3477C83.9886 47.8559 84.5908 48.444 85.2717 48.6009C85.5815 48.6723 86.0827 48.6625 86.4557 48.5776C86.8001 48.4993 87.1057 48.3162 87.2438 48.1053C87.3557 47.9346 87.4025 47.6274 87.3473 47.4274C87.244 47.0532 86.9613 46.9234 85.6256 46.637C84.5324 46.4025 83.9691 46.2239 83.6285 46.0038C82.9648 45.5748 82.6695 44.9647 82.719 44.125C82.7524 43.5605 82.8868 43.2534 83.2707 42.8649C83.6365 42.4947 84.0041 42.2964 84.604 42.1457C85.302 41.9703 86.3061 42.0634 86.966 42.3647L87.2151 42.4785V42.315V42.1516H87.8556H88.4962V43.409V44.6663H87.8556H87.2151V44.4118C87.2151 44.1691 87.2034 44.145 86.966 43.8984C86.6585 43.5791 86.3793 43.4123 85.9817 43.3104C85.5683 43.2045 85.002 43.2361 84.6627 43.3841C84.0255 43.6619 83.8381 44.3706 84.301 44.7521C84.5189 44.9318 84.7799 45.0081 85.9577 45.2363C86.5057 45.3425 87.0929 45.4736 87.2625 45.5277C87.982 45.7572 88.5316 46.21 88.737 46.7424C88.8849 47.126 88.9146 47.7537 88.8042 48.1618C88.5982 48.9226 87.9323 49.5052 86.9947 49.745C86.5728 49.8529 85.7836 49.8976 85.3898 49.8359ZM30.7045 49.079V48.4147H31.3925H32.0805V44.2868V40.1588H31.3925H30.7045V39.4895V38.8203L33.2785 38.8429C36.0079 38.8669 36.3805 38.8937 37.1337 39.1191C37.8235 39.3256 38.4181 39.7299 38.7149 40.1942C38.9393 40.5453 39.0938 41.073 39.1505 41.6826C39.3192 43.4956 38.5753 44.8059 37.11 45.2765C36.5512 45.456 35.9902 45.5239 34.8206 45.5538L33.6937 45.5826V46.9987V48.4148H34.4054H35.1171V49.079V49.7433H32.9108H30.7045V49.079ZM35.9949 44.1677C36.6961 44.0232 37.0511 43.799 37.2868 43.3518C37.4677 43.0087 37.537 42.6849 37.537 42.183C37.537 41.199 37.1391 40.6029 36.3119 40.3473C35.8907 40.2172 35.3179 40.1596 34.441 40.1592L33.6937 40.1588V42.2301V44.3014L34.6545 44.2737C35.2559 44.2564 35.7573 44.2167 35.9949 44.1677ZM47.6671 49.1027V48.4622H48.4386H49.21L49.1978 45.9666L49.1855 43.4709L48.4407 43.4776L47.6959 43.4843L47.6815 42.8178L47.6671 42.1514L49.0065 42.1515L50.3458 42.1516L50.3587 43.0175L50.3717 43.8834L50.5727 43.5191C51.1208 42.5257 51.801 42.1524 53.2067 42.0734L53.7642 42.0421V42.7776V43.5131L53.183 43.5449C52.1395 43.6021 51.6209 43.7743 51.2283 44.194C50.7714 44.6825 50.6806 45.1309 50.6453 47.0743L50.6201 48.4621H51.4686H52.3171V49.1027V49.7432H49.9921H47.6672L47.6671 49.1027ZM59.1496 49.1027V48.4622H59.8257H60.5018V45.9725V43.4827L59.8356 43.4696L59.1694 43.4564L59.1595 42.804L59.1496 42.1515L60.5374 42.1516L61.9253 42.1516V42.6023C61.9253 42.8503 61.9353 43.0531 61.9475 43.0531C61.9597 43.0531 62.1218 42.9547 62.3077 42.8345C63.5848 42.0083 64.9334 41.8234 65.7493 42.3626C66.1586 42.633 66.421 43.147 66.526 43.8834C66.552 44.0661 66.5737 45.1711 66.5742 46.3389L66.5753 48.4622H67.2159H67.8564V49.1027V49.7433H66.4805H65.1045V46.9999C65.1045 43.9807 65.1 43.9249 64.8168 43.6026C64.4095 43.1388 63.3762 43.3431 62.2732 44.1056L61.9254 44.346V46.4041V48.4622H62.5897H63.254V49.1027V49.7433H61.2019H59.1497L59.1496 49.1027ZM76.3732 49.1027V48.4622H77.1442H77.9152V45.9712V43.4801H77.1561H76.3969V42.8159V42.1516H77.7255H79.054V43.0057C79.054 43.4754 79.07 43.8584 79.0896 43.8568C79.1091 43.8551 79.1982 43.7048 79.2874 43.5228C79.521 43.0458 79.9284 42.6205 80.3503 42.4129C80.7724 42.2052 81.1927 42.1139 81.9127 42.0734L82.4702 42.0421V42.7776V43.5131L81.889 43.5449C80.8518 43.6018 80.3231 43.7784 79.929 44.1998C79.4813 44.6783 79.3863 45.1515 79.3513 47.0743L79.3261 48.4622H80.1746H81.0231V49.1027V49.7433H78.6981H76.3732L76.3732 49.1027ZM54.1319 40.5057C54.0579 40.4863 54.0489 40.4132 54.049 39.835L54.0491 39.1861H54.7251C55.3771 39.1861 55.4091 39.1816 55.623 39.0557C55.7905 38.9572 55.8745 38.8642 55.9658 38.6761C56.1631 38.2693 56.1897 37.6908 56.1742 34.1329L56.1603 30.9301H55.579H54.9978L54.9978 30.2777L54.9979 29.6253H56.3323H57.6667L57.6411 33.7889C57.6197 37.2784 57.6032 38.0404 57.5385 38.4955C57.4961 38.7941 57.4355 39.0698 57.404 39.1081C57.3723 39.1464 56.8828 39.4839 56.316 39.8581L55.2854 40.5384L54.7502 40.5328C54.4558 40.53 54.1776 40.5176 54.1319 40.5057ZM50.0633 37.4073C48.4865 37.2104 47.2965 36.2471 46.7803 34.7497C46.6273 34.3061 46.6248 34.2855 46.6241 33.4449C46.6235 32.6931 46.6363 32.5457 46.7324 32.2139C47.1094 30.9118 48.0813 29.9504 49.399 29.5762C49.8586 29.4457 50.7348 29.4007 51.2376 29.4818C52.8275 29.7382 54.0792 30.9234 54.4521 32.5255C54.5701 33.0322 54.5598 33.9434 54.4306 34.4413C53.9866 36.1519 52.566 37.3173 50.7987 37.4208C50.5638 37.4346 50.2329 37.4285 50.0633 37.4073ZM51.0725 35.9611C52.1417 35.7345 52.922 34.7688 52.9904 33.5872C53.1031 31.6408 51.2093 30.2638 49.5413 31.0794C48.5032 31.587 47.9252 32.818 48.1699 34.0001C48.3359 34.8019 49.0105 35.6075 49.7331 35.8667C50.2111 36.0382 50.5844 36.0645 51.0725 35.9611ZM62.7319 37.4061C61.2882 37.2646 60.0872 36.4797 59.4879 35.2862C59.0043 34.323 58.9531 32.9239 59.3628 31.8645C59.7564 30.8466 60.6585 29.9875 61.6859 29.6521C62.755 29.3031 63.9418 29.3706 64.8824 29.8338C66.1661 30.4659 66.8975 31.6816 67.0763 33.4805L67.1081 33.8008H63.8977H60.6873L60.7183 33.9787C60.9028 35.0386 61.6221 35.8418 62.6195 36.1016C63.0094 36.2032 63.6817 36.1933 64.1264 36.0796C64.686 35.9365 65.0954 35.6978 65.485 35.2877L65.82 34.935L66.423 35.2038C66.7546 35.3517 67.0409 35.4861 67.0591 35.5026C67.0773 35.5191 66.9807 35.6708 66.8443 35.8398C66.1277 36.7277 65.0621 37.2714 63.7758 37.4056C63.2828 37.457 63.2515 37.457 62.7319 37.4061ZM65.5005 32.5078C65.3797 32.0963 65.1457 31.7078 64.8196 31.3772C63.7962 30.3399 62.1956 30.3932 61.3046 31.4944C61.0793 31.7728 60.8323 32.2793 60.7641 32.6027L60.7315 32.7569H63.1526H65.5736L65.5005 32.5078ZM71.486 37.4218C71.0428 37.3831 70.5567 37.2442 70.1085 37.028C69.1145 36.5485 68.4248 35.6594 68.1314 34.4793C67.9838 33.8856 67.9838 32.8574 68.1315 32.2824C68.4207 31.1569 69.1557 30.2331 70.1195 29.7839C70.6833 29.5211 71.1973 29.4219 71.8656 29.4469C72.5519 29.4725 73.0696 29.6258 73.5437 29.9437C73.7107 30.0557 73.8551 30.1473 73.8647 30.1473C73.8743 30.1473 73.8821 30.0298 73.8821 29.8863V29.6253L74.5345 29.6253L75.1869 29.6253V31.0487V32.4722L74.5458 32.4722L73.9046 32.4722L73.8464 32.2272C73.678 31.5183 73.1841 31.0324 72.4333 30.8368C71.2501 30.5286 70.1303 31.1918 69.7248 32.441C69.6196 32.765 69.5987 32.917 69.5967 33.3737C69.5927 34.2497 69.8121 34.879 70.3083 35.4149C71.0678 36.2353 72.4904 36.3419 73.4191 35.6481C73.6711 35.4598 74.0739 34.9741 74.1695 34.7432L74.2214 34.6179L74.8342 34.9061L75.447 35.1942L75.2764 35.5058C74.799 36.3773 74.0781 36.9738 73.1596 37.2571C72.8642 37.3483 72.0131 37.4647 71.7775 37.4463C71.7215 37.4418 71.5904 37.4308 71.486 37.4218ZM78.5321 37.3315C77.8648 37.2208 77.57 37.0651 77.3648 36.715C77.0953 36.2551 77.0921 36.2203 77.0637 33.4686L77.0374 30.9301H76.551H76.0646L76.0647 30.2777L76.0648 29.6253H76.563H77.0612V29.0413V28.4573L77.7847 27.8018L78.5083 27.1464L78.521 28.3858L78.5337 29.6253H79.2209H79.9081L79.9081 30.2777L79.908 30.9301H79.2319H78.5558V33.2635C78.5558 35.5581 78.5575 35.5991 78.6552 35.7308C78.8024 35.929 79.0388 35.9919 79.429 35.9366C79.6066 35.9113 79.7871 35.8773 79.83 35.8608C79.9001 35.8339 79.9081 35.898 79.9081 36.4915V37.1522L79.5641 37.2308C79.1883 37.3166 78.7187 37.3624 78.5321 37.3315ZM30.7045 36.5527V35.8885H31.3925H32.0805V31.7605V27.6325H31.3925H30.7045V26.9638V26.2951L33.2785 26.3165C36.0108 26.3392 36.3768 26.3655 37.1316 26.5928C37.8396 26.806 38.4127 27.1952 38.7149 27.668C39.1943 28.4178 39.3209 29.9205 38.9876 30.9057C38.6449 31.9184 37.9469 32.5347 36.8015 32.8357C36.3635 32.9508 36.2268 32.9626 35.0222 32.9891L33.7174 33.0178L33.7049 34.4531L33.6923 35.8884H34.4047H35.1171V36.5527V37.217H32.9108H30.7045L30.7045 36.5527ZM35.9707 31.6394C37.1239 31.4198 37.5919 30.7742 37.5257 29.4941C37.4745 28.5015 37.0882 28.0243 36.1289 27.7688C35.8271 27.6883 35.5648 27.6652 34.7257 27.645L33.6937 27.6201V29.6587C33.6937 30.7799 33.7097 31.7142 33.7293 31.7349C33.7879 31.797 35.5339 31.7226 35.9707 31.6394ZM40.0043 36.5765V35.9359H40.7639H41.5235L41.5112 33.433L41.4989 30.9301H40.7516H40.0043L40.0043 30.2777L40.0043 29.6253H41.3328H42.6614V30.4794C42.6614 31.0171 42.679 31.3335 42.7088 31.3335C42.735 31.3335 42.7563 31.308 42.7563 31.2769C42.7563 31.1699 43.1354 30.5825 43.3702 30.3256C43.8133 29.8408 44.4761 29.5976 45.4964 29.5455L46.0777 29.5158V30.2512V30.9867L45.4964 31.0177C43.9876 31.0983 43.3573 31.4982 43.112 32.5306C43.0185 32.924 42.9371 34.3114 42.9553 35.2004L42.9698 35.9122L43.812 35.9251L44.6542 35.9381V36.5775V37.217H42.3293H40.0043L40.0043 36.5765ZM56.5448 27.8679C56.3795 27.8184 56.1557 27.614 56.0535 27.419C56.0108 27.3375 55.9788 27.1593 55.9787 27.0023C55.9782 26.5071 56.3336 26.1616 56.8434 26.1616C57.1751 26.1616 57.4481 26.3152 57.6014 26.588C57.7573 26.8654 57.7326 27.3083 57.5476 27.5508C57.3192 27.8502 56.914 27.9784 56.5448 27.8679ZM34.1934 24.8258C33.7112 24.7699 33.067 24.5542 32.6332 24.3035C32.4215 24.1811 32.1315 23.9442 31.8618 23.6733C31.488 23.2979 31.3966 23.1722 31.1855 22.7432C30.828 22.0164 30.7767 21.779 30.7761 20.8474C30.7756 19.9708 30.8323 19.6688 31.1131 19.052C31.629 17.9188 32.6617 17.1401 33.9515 16.9117C34.3653 16.8384 35.1634 16.8509 35.5814 16.9373C37.5479 17.3435 38.9197 19.2707 38.6812 21.2924C38.4119 23.5764 36.4873 25.0917 34.1934 24.8258ZM35.4823 23.3155C36.0819 23.1047 36.5871 22.6475 36.8724 22.0574C37.1043 21.5774 37.1787 21.1968 37.1443 20.6656C37.0661 19.4588 36.2068 18.4771 35.0593 18.2835C34.3435 18.1628 33.5827 18.4268 33.034 18.9862C32.0104 20.03 32.0098 21.6833 33.0329 22.7098C33.3816 23.0598 33.8771 23.3348 34.2949 23.4104C34.6236 23.4699 35.1666 23.4264 35.4823 23.3155ZM56.6468 24.8306C55.3308 24.6857 54.2694 24.0739 53.6213 23.0866C53.1613 22.3859 52.9755 21.6271 53.0181 20.6231C53.0488 19.8979 53.153 19.4945 53.4682 18.8802C53.7773 18.2778 54.4094 17.646 55.0216 17.3274C55.7238 16.962 56.0673 16.8852 56.9907 16.8873C57.5931 16.8884 57.844 16.9087 58.0792 16.974C59.273 17.3057 60.1801 18.1424 60.6457 19.3414C60.8023 19.7446 60.9655 20.5083 60.9827 20.9186L60.9947 21.2033L57.8065 21.2155C54.9218 21.2266 54.6183 21.2349 54.6183 21.3036C54.6183 21.4824 54.781 21.9859 54.9317 22.2734C55.2099 22.8041 55.7346 23.2592 56.3045 23.464C56.6897 23.6024 57.4558 23.6354 57.9332 23.5341C58.4951 23.4149 58.9486 23.1634 59.3739 22.7353L59.7406 22.3662L60.3466 22.6331C60.6799 22.7798 60.9611 22.9075 60.9715 22.9167C61.0083 22.9493 60.7117 23.3343 60.4421 23.6041C59.5473 24.4992 58.045 24.9847 56.6468 24.8306ZM59.4404 20.029C59.3758 19.691 59.0261 19.0843 58.7244 18.787C57.405 17.487 55.3562 17.9815 54.7648 19.7428C54.7103 19.9051 54.6657 20.0705 54.6657 20.1105C54.6657 20.1748 54.9422 20.1832 57.0678 20.1832H59.4698L59.4404 20.029ZM39.1977 24.0027V23.3622H39.8856H40.5737V20.8474V18.3327H39.9331H39.2926V17.6922V17.0516H40.6685H42.0445V17.5261C42.0445 17.787 42.055 18.0006 42.0679 18.0006C42.0807 18.0006 42.1891 17.9258 42.3089 17.8344C42.6167 17.5995 43.107 17.3227 43.468 17.1801C43.9004 17.0093 44.3557 16.9406 44.8745 16.9677C45.249 16.9873 45.3657 17.0144 45.6241 17.1416C45.9602 17.307 46.228 17.5757 46.3997 17.9195L46.508 18.1364L46.8701 17.8766C47.3722 17.5163 47.7779 17.2972 48.2557 17.1283C48.6265 16.9971 48.7174 16.984 49.2566 16.9837C49.7615 16.9835 49.8896 16.9994 50.1181 17.0904C50.7988 17.3618 51.1388 17.8523 51.2476 18.7196C51.2751 18.9394 51.2969 20.051 51.2969 21.2376V23.3622H51.9612H52.6254V24.0027V24.6433H51.2257H49.826V21.9411C49.826 20.193 49.808 19.1549 49.775 19.001C49.5664 18.0285 48.4847 17.9834 47.1452 18.8914L46.6707 19.213V21.2757V23.3385L47.3231 23.3517L47.9755 23.3649V24.0041V24.6433H46.5995H45.2235L45.2219 22.093C45.2213 20.6903 45.2 19.3855 45.1751 19.1934C45.1496 18.9974 45.0826 18.7579 45.0223 18.6477C44.8192 18.2763 44.35 18.1506 43.7525 18.3075C43.4288 18.3924 42.7314 18.7437 42.3527 19.0125L42.0681 19.2146L42.0557 21.2884L42.0433 23.3622H42.7081H43.3729V24.0028V24.6433H41.2852H39.1975L39.1977 24.0027Z" fill="#414871"/>
<path d="M8.22791 41.0916L8.22793 32.1833H8.72263H9.21734L10.458 31.3055C11.1403 30.8227 11.7077 30.4277 11.7189 30.4277C11.73 30.4277 11.7391 34.8256 11.7391 40.2008V49.974L9.98349 49.987L8.22791 50L8.22791 41.0916ZM26.165 35.0895L26.1667 20.2026L27.8517 19.0164C28.7785 18.364 29.5571 17.8231 29.5819 17.8144C29.6103 17.8045 29.6269 23.7502 29.6269 33.8874V49.9763H27.8951H26.1632L26.165 35.0895ZM8.22793 13.0614V0.0609698H9.69186C10.497 0.0609698 11.287 0.0472412 11.4474 0.0304849L11.7391 0V11.7458V23.4915L11.063 23.9853C10.6911 24.2568 9.90106 24.8351 9.30737 25.2704L8.22793 26.0617V13.0614ZM26.1633 6.47041V0.0609698H27.6035C28.3956 0.0609698 29.1749 0.0472412 29.3353 0.0304849L29.627 0L29.6242 5.19046L29.6214 10.3809L27.9334 11.6146C27.0049 12.2931 26.2268 12.8553 26.2041 12.864C26.1808 12.8729 26.1633 10.0857 26.1633 6.47041Z" fill="#414871"/>
<path d="M4.07615 32.1411L0 32.129L0.256586 31.9483C0.397709 31.849 1.35657 31.1487 2.38738 30.3923C3.41819 29.6358 5.14232 28.3708 6.2188 27.5811C7.29528 26.7913 8.17603 26.1252 8.17603 26.1007C8.17603 26.0762 8.19206 26.0615 8.21162 26.0679C8.24788 26.0799 8.67952 25.7659 15.8389 20.5211C23.7812 14.7025 26.041 13.0432 26.1114 12.9778C26.184 12.9103 29.5203 10.461 29.6572 10.3747C29.7526 10.3145 31.7764 8.83322 38.353 4.00994C41.2366 1.89506 43.6405 0.136992 43.695 0.103137C43.7844 0.0474888 43.8962 0.100894 44.8574 0.658339C47.1739 2.00173 53.681 5.77955 57.261 7.85941C58.618 8.64779 60.9347 9.99276 62.4091 10.8482C63.8835 11.7037 65.4102 12.5904 65.8016 12.8187C66.4949 13.223 70.5887 15.6 72.3969 16.648C72.8927 16.9354 75.0172 18.1693 77.118 19.39C79.2187 20.6106 81.4607 21.9124 82.1 22.2829C82.7394 22.6533 85.1308 24.0418 87.4142 25.3684C89.6976 26.695 92.0475 28.0597 92.6362 28.4011C93.2249 28.7424 94.9023 29.7157 96.3637 30.5638L99.0208 32.1058L93.9351 32.1179L88.8495 32.13L85.9848 30.5818C84.4092 29.7304 82.0632 28.4625 80.7715 27.7644C79.4797 27.0663 77.1097 25.7852 75.5047 24.9175C73.8998 24.0498 71.391 22.6941 69.9296 21.9049C68.4682 21.1156 66.6213 20.118 65.8254 19.6879C65.0294 19.2578 63.4387 18.3984 62.2905 17.7782C61.1422 17.158 59.8184 16.4418 59.3487 16.1866C58.879 15.9315 57.4377 15.152 56.146 14.4544C50.3655 11.3326 48.3301 10.2328 46.1344 9.04487C44.8427 8.34599 43.7639 7.77389 43.7372 7.77355C43.7105 7.77322 42.0024 8.96424 39.9414 10.4203C31.7391 16.215 29.6228 17.713 27.9381 18.9164C26.9726 19.6062 26.1505 20.1858 26.1114 20.2044C26.0283 20.2438 15.0656 27.981 10.5132 31.2131L9.23102 32.1235L8.69167 32.1384C8.39502 32.1466 6.31804 32.1478 4.07615 32.1411ZM77.972 27.6041C77.972 27.5942 78.0094 27.5568 78.0551 27.521C78.1303 27.462 78.132 27.4637 78.073 27.539C78.011 27.618 77.972 27.6431 77.972 27.6041Z" fill="#FF5500"/>
</svg>
