<?xml version="1.0" encoding="UTF-8" standalone="no"?>
<!-- Created with Inkscape (http://www.inkscape.org/) -->

<svg
   version="1.1"
   id="svg9"
   xml:space="preserve"
   width="682.66669"
   height="682.66669"
   viewBox="0 0 682.66669 682.66669"
   xmlns="http://www.w3.org/2000/svg"
   xmlns:svg="http://www.w3.org/2000/svg"><defs
     id="defs13"><clipPath
       clipPathUnits="userSpaceOnUse"
       id="clipPath23"><path
         d="M 0,512 H 512 V 0 H 0 Z"
         id="path21" /></clipPath></defs><g
     id="g15"
     transform="matrix(1.3333333,0,0,-1.3333333,0,682.66667)"><g
       id="g17"><g
         id="g19"
         clip-path="url(#clipPath23)"><g
           id="g25"
           transform="translate(400.6001,288.1333)"><path
             d="m 0,0 c 0,44.368 -35.965,80.333 -80.333,80.333 -44.369,0 -80.334,-35.965 -80.334,-80.333 V -144.6 H 0 Z"
             style="fill:none;stroke:#000000;stroke-width:30;stroke-linecap:round;stroke-linejoin:round;stroke-miterlimit:10;stroke-dasharray:none;stroke-opacity:1"
             id="path27" /></g><g
           id="g29"
           transform="translate(320.2666,368.4668)"><path
             d="m 0,0 h -224.933 c -44.368,0 -80.334,-35.965 -80.334,-80.333 v -144.601 h 224.934 v 144.617 c 0,21.304 8.458,41.733 23.521,56.795 C -41.75,-8.459 -21.32,0 -0.016,0 Z"
             style="fill:none;stroke:#000000;stroke-width:30;stroke-linecap:round;stroke-linejoin:round;stroke-miterlimit:10;stroke-dasharray:none;stroke-opacity:1"
             id="path31" /></g><g
           id="g33"
           transform="translate(239.9331,143.5332)"><path
             d="M 0,0 H 257.067"
             style="fill:none;stroke:#000000;stroke-width:30;stroke-linecap:round;stroke-linejoin:round;stroke-miterlimit:10;stroke-dasharray:none;stroke-opacity:1"
             id="path35" /></g><path
           d="m 111.4,432.733 h 64.267 V 497 H 111.4 Z"
           style="fill:none;stroke:#000000;stroke-width:30;stroke-linecap:round;stroke-linejoin:round;stroke-miterlimit:10;stroke-dasharray:none;stroke-opacity:1"
           id="path37" /><path
           d="m 175.667,15 h 64.267 v 128.533 h -64.267 z"
           style="fill:none;stroke:#000000;stroke-width:30;stroke-linecap:round;stroke-linejoin:round;stroke-miterlimit:10;stroke-dasharray:none;stroke-opacity:1"
           id="path39" /><g
           id="g41"
           transform="translate(175.6665,432.7334)"><path
             d="M 0,0 V -144.6"
             style="fill:none;stroke:#000000;stroke-width:30;stroke-linecap:round;stroke-linejoin:round;stroke-miterlimit:10;stroke-dasharray:none;stroke-opacity:1"
             id="path43" /></g></g></g></g></svg>
