<svg xmlns="http://www.w3.org/2000/svg" version="1.1" xmlns:xlink="http://www.w3.org/1999/xlink" width="512" height="512" x="0" y="0" viewBox="0 0 512 512" style="enable-background:new 0 0 512 512" xml:space="preserve" class=""><g><path fill="#ffddce" d="M275.477 384.432a52.995 52.995 0 0 0 4.558 22.53c4.753 10.692 12.537 19.045 21.88 24.521 14.153 8.304 25.333 20.865 32.312 35.725l11.813 25.171c5.687 12.106 17.704 19.207 30.249 19.207 4.753 0 9.579-1.016 14.162-3.169 16.688-7.84 23.871-27.722 16.03-44.41l-27.632-58.864.232-.366h70.86c6.963 0 13.26-2.811 17.81-7.369a25.068 25.068 0 0 0 7.385-17.818c0-13.926-11.285-25.203-25.195-25.203h8.482c14.137 0 26.032-11.562 25.747-25.699-.268-13.682-11.44-24.691-25.179-24.691h-9.051c6.963 0 13.26-2.811 17.81-7.369a25.068 25.068 0 0 0 7.385-17.818c0-13.926-11.285-25.195-25.195-25.195h-9.043c6.955 0 13.26-2.819 17.818-7.377s7.369-10.863 7.369-17.818c0-13.918-11.277-25.195-25.187-25.195H307.115c-17.285 0-31.307 13.994-31.341 31.28z" opacity="1" data-original="#ffddce" class=""></path><g fill="#ffcbbe"><path d="M400.778 500.868a31.962 31.962 0 0 1-3.412.179c-12.545 0-24.561-7.101-30.249-19.207l-11.813-25.171c-6.979-14.86-18.159-27.421-32.312-35.725-9.344-5.476-42.956-13.983-44.199-77.657-.098-4.972-1.893-9.563-3.209-14.145l-.106 55.289a52.995 52.995 0 0 0 4.558 22.53c4.753 10.692 12.536 19.045 21.88 24.521 14.153 8.304 25.333 20.864 32.312 35.725l11.813 25.171c5.687 12.106 17.704 19.207 30.249 19.207 4.753 0 9.579-1.016 14.161-3.169a33.195 33.195 0 0 0 10.327-7.548zM466.085 228.42c0-13.918-11.277-25.195-25.187-25.195H303.622a44.839 44.839 0 0 0-36.334 18.557h173.611c10.635 0 19.727 6.589 23.424 15.917.008-.008.008-.024.024-.033 0 0-.008-.008 0-.008a25.277 25.277 0 0 0 1.738-9.238zM473.358 288.089a25.138 25.138 0 0 0 1.77-9.278c0-13.924-11.276-25.2-25.189-25.2h-9.654a9.28 9.28 0 0 0 0 18.558h9.654c10.637 0 19.726 6.594 23.419 15.92zM482.409 338.478a25.142 25.142 0 0 0 1.77-9.278c0-13.924-11.276-25.2-25.189-25.2h-9.654a9.28 9.28 0 0 0 0 18.558h9.654c10.636-.001 19.725 6.594 23.419 15.92zM473.369 388.867a25.138 25.138 0 0 0 1.77-9.278c0-13.924-11.276-25.2-25.189-25.2h-9.654a9.28 9.28 0 0 0 0 18.558h9.654c10.636 0 19.725 6.594 23.419 15.92z" fill="#ffcbbe" opacity="1" data-original="#ffcbbe" class=""></path></g><path fill="#fa5100" d="M275.474 227.318v157.114c0 10.897-8.833 19.73-19.73 19.73h-38.903c-10.897 0-19.73-8.833-19.73-19.73V227.318c0-10.897 8.833-19.73 19.73-19.73h38.903c10.897 0 19.73 8.834 19.73 19.73z" opacity="1" data-original="#ee596b" class=""></path><path fill="#d94900" d="M275.479 334.945v49.493c0 10.896-8.84 19.725-19.736 19.725h-38.902c-10.896 0-19.725-8.829-19.725-19.725v-49.493c0 10.896 8.829 19.736 19.725 19.736h38.902c10.897 0 19.736-8.84 19.736-19.736z" opacity="1" data-original="#ed3a4f" class=""></path><g fill="#ee596b"><path d="m117.001 369.171.579 2.162c2.043 7.625-2.167 15.53-9.634 18.09l-22.969 7.875c-8.227 2.821-17.122-1.917-19.374-10.318l-1.439-5.372c-2.251-8.401 3.084-16.951 11.619-18.622l23.829-4.665c7.747-1.516 15.346 3.225 17.389 10.85zM153.693 420.372l1.583 1.583c5.582 5.582 5.889 14.533.702 20.484l-15.954 18.304c-5.715 6.556-15.787 6.901-21.937.751l-3.933-3.933c-6.15-6.15-5.805-16.222.751-21.937l18.304-15.954c5.951-5.187 14.902-4.88 20.484.702zM204.314 458.068l2.162.579c7.625 2.043 12.366 9.641 10.849 17.388l-4.665 23.829c-1.671 8.535-10.221 13.87-18.622 11.619l-5.372-1.439c-8.401-2.251-13.138-11.146-10.318-19.374l7.875-22.969c2.561-7.467 10.466-11.676 18.091-9.633z" fill="#fa5100" opacity="1" data-original="#ee596b" class=""></path></g><g fill="#78d0b1"><path d="m408.25 142.388-.578-2.155c-2.037-7.601 2.16-15.482 9.604-18.034l22.898-7.851c8.202-2.812 17.07 1.911 19.314 10.286l1.435 5.356c2.244 8.375-3.074 16.899-11.583 18.565l-23.756 4.65c-7.722 1.511-15.297-3.216-17.334-10.817zM371.671 91.345l-1.578-1.578c-5.565-5.565-5.87-14.488-.7-20.42l15.905-18.248c5.697-6.536 15.738-6.88 21.869-.749l3.921 3.921c6.131 6.131 5.787 16.172-.749 21.869l-18.248 15.905c-5.932 5.171-14.855 4.865-20.42-.7zM321.206 53.766l-2.155-.578c-7.601-2.037-12.328-9.612-10.816-17.335l4.65-23.756C314.551 3.588 323.075-1.73 331.45.514l5.356 1.435c8.375 2.244 13.098 11.112 10.286 19.314l-7.851 22.898c-2.553 7.445-10.434 11.642-18.035 9.605z" fill="#fa5100" opacity="1" data-original="#78d0b1" class=""></path></g><path fill="#ffddce" d="M95.829 277.748c.034 17.285 24.71 31.28 41.996 31.28h133.784c13.91 0 25.187-11.277 25.187-25.195 0-6.955-2.811-13.26-7.369-17.818s-10.863-7.377-17.818-7.377h9.043c13.91 0 25.195-11.269 25.195-25.195a25.068 25.068 0 0 0-7.385-17.818 25.074 25.074 0 0 0-17.81-7.369h9.051c13.739 0 24.911-11.009 25.179-24.691.284-14.137-11.61-25.699-25.747-25.699h-8.482c13.91 0 25.195-11.277 25.195-25.203a25.068 25.068 0 0 0-7.385-17.818 25.074 25.074 0 0 0-17.81-7.369h-70.86l-.232-.366 27.632-58.864c7.84-16.688.658-36.57-16.03-44.41A33.222 33.222 0 0 0 207.001.667c-12.545 0-24.561 7.101-30.249 19.207l-11.813 25.171c-6.979 14.86-18.159 27.421-32.312 35.725-9.344 5.476-17.127 13.828-21.88 24.521a52.995 52.995 0 0 0-4.558 22.53z" opacity="1" data-original="#ffddce" class=""></path><g fill="#ffcbbe"><path d="M231.488 11.384a31.962 31.962 0 0 0-3.412-.179c-12.545 0-24.561 7.101-30.249 19.207l-11.813 25.171c-6.979 14.86-18.159 27.421-32.312 35.725-9.344 5.476-42.956 13.983-44.199 77.657-.098 4.972-1.893 9.563-3.209 14.145l-.106-55.289a52.995 52.995 0 0 1 4.558-22.53c4.753-10.692 12.537-19.045 21.88-24.521 14.153-8.304 25.333-20.864 32.312-35.725l11.813-25.171C182.439 7.768 194.455.667 207 .667c4.753 0 9.579 1.016 14.161 3.169a33.184 33.184 0 0 1 10.327 7.548zM296.795 283.832c0 13.918-11.277 25.195-25.187 25.195H134.332a44.839 44.839 0 0 1-36.334-18.557h173.611c10.635 0 19.727-6.589 23.424-15.917.008.008.008.024.024.033 0 0-.008.008 0 .008a25.277 25.277 0 0 1 1.738 9.238zM304.068 224.163a25.138 25.138 0 0 1 1.77 9.278c0 13.924-11.276 25.2-25.189 25.2h-9.654a9.28 9.28 0 0 1 0-18.558h9.654c10.637 0 19.726-6.594 23.419-15.92zM313.119 173.774a25.138 25.138 0 0 1 1.77 9.278c0 13.924-11.276 25.2-25.189 25.2h-9.654a9.28 9.28 0 0 1 0-18.558h9.654c10.636.001 19.725-6.594 23.419-15.92zM304.079 123.385a25.138 25.138 0 0 1 1.77 9.278c0 13.924-11.276 25.2-25.189 25.2h-9.654a9.28 9.28 0 0 1 0-18.558h9.654c10.636 0 19.725-6.594 23.419-15.92z" fill="#ffcbbe" opacity="1" data-original="#ffcbbe" class=""></path></g><path fill="#fa5100" d="M27.827 127.819v157.114c0 10.897 8.833 19.73 19.73 19.73H86.46c10.897 0 19.73-8.833 19.73-19.73V127.819c0-10.897-8.833-19.73-19.73-19.73H47.557c-10.897 0-19.73 8.834-19.73 19.73z" opacity="1" data-original="#78d0b1" class=""></path><path fill="#d94900" d="M27.822 235.446v49.493c0 10.896 8.84 19.725 19.736 19.725H86.46c10.896 0 19.725-8.829 19.725-19.725v-49.493c0 10.896-8.829 19.736-19.725 19.736H47.557c-10.896 0-19.735-8.84-19.735-19.736z" opacity="1" data-original="#66b49d" class=""></path></g></svg>