<svg xmlns="http://www.w3.org/2000/svg" version="1.1" xmlns:xlink="http://www.w3.org/1999/xlink" width="512" height="512" x="0" y="0" viewBox="0 0 12.8 12.8" style="enable-background:new 0 0 512 512" xml:space="preserve" fill-rule="evenodd" class=""><g><linearGradient id="a"><stop offset="0" stop-color="#df9000"></stop><stop offset=".73" stop-color="#7f5200"></stop><stop offset=".99" stop-color="#3f2600"></stop><stop offset="1" stop-color="#3f2600"></stop></linearGradient><linearGradient id="b"><stop offset="0" stop-color="#df9000"></stop><stop offset=".792" stop-color="#7f5200"></stop><stop offset=".99" stop-color="#3f2600"></stop><stop offset="1" stop-color="#3f2600"></stop></linearGradient><linearGradient id="c"><stop offset="0" stop-color="#fff"></stop><stop offset="1"></stop></linearGradient><path fill="#fa5100" d="M0 6.403C0 2.873 2.87.006 6.405.006s6.405 2.866 6.405 6.397c0 3.53-2.87 6.397-6.405 6.397S0 9.933 0 6.403zM9.467 9.51a.667.667 0 0 0 .039-.043c.33-.336.381-.613.454-.787.063-.344.174-.621-.483-.872l-1.122-.422c-.329-.113-.548-.056-.678.226l-.189.374c-.118.227-.516.177-.703.097-.536-.277-.858-.467-1.426-1.034v.001C4.79 6.48 4.6 6.158 4.322 5.623c-.08-.187-.129-.584.097-.702l.375-.19c.284-.127.34-.348.225-.676l-.421-1.12c-.228-.644-.529-.546-.874-.483-.174.073-.451.124-.787.453a.667.667 0 0 0-.043.04c-.822.82-.822 2.461 1.643 4.923s4.108 2.462 4.93 1.64z" opacity="1" data-original="#333333" class=""></path></g></svg>