<svg xmlns="http://www.w3.org/2000/svg" version="1.1" xmlns:xlink="http://www.w3.org/1999/xlink" width="512" height="512" x="0" y="0" viewBox="0 0 682.667 682.667" style="enable-background:new 0 0 512 512" xml:space="preserve" class=""><g><defs><clipPath id="a" clipPathUnits="userSpaceOnUse"><path d="M0 512h512V0H0Z" fill="#1f2937" opacity="1" data-original="#000000" class=""></path></clipPath></defs><g clipPath="url(#a)" transform="matrix(1.33333 0 0 -1.33333 0 682.667)"><path d="M0 0v-240.869h236.42V89.008L118.21 216.667 0 89.008" style="strokeWidth:20;strokeLinecap:round;strokeLinejoin:round;stroke-miterlimit:10;stroke-dasharray:none;stroke-opacity:1" transform="translate(23.423 268.258)" fill="none" stroke="#1f2937" strokeWidth="20" strokeLinecap="round" strokeLinejoin="round" stroke-miterlimit="10" stroke-dasharray="none" stroke-opacity="" data-original="#000000" class="" opacity="1"></path><path d="m0 0-167.173-167.173-74.983 74.983v255.208l-71.234 76.928h80.131z" style="strokeWidth:20;strokeLinecap:round;strokeLinejoin:round;stroke-miterlimit:10;stroke-dasharray:none;stroke-opacity:1" transform="translate(502 194.245)" fill="none" stroke="#1f2937" strokeWidth="20" strokeLinecap="round" strokeLinejoin="round" stroke-miterlimit="10" stroke-dasharray="none" stroke-opacity="" data-original="#000000" class="" opacity="1"></path><path d="M0 0c0 12.058-9.775 21.833-21.833 21.833h-15.223c-12.058 0-21.833-9.775-21.833-21.833v-16.214c0-12.058 9.775-21.833 21.833-21.833h15.223C-9.775-38.047 0-47.822 0-59.88v-15.533c0-12.058-9.775-21.833-21.833-21.833h-15.223c-12.058 0-21.833 9.775-21.833 21.833" style="strokeWidth:20;strokeLinecap:round;strokeLinejoin:round;stroke-miterlimit:10;stroke-dasharray:none;stroke-opacity:1" transform="translate(171.078 219.3)" fill="none" stroke="#1f2937" strokeWidth="20" strokeLinecap="round" strokeLinejoin="round" stroke-miterlimit="10" stroke-dasharray="none" stroke-opacity="" data-original="#000000" class="" opacity="1"></path><path d="M0 0v17.858" style="strokeWidth:20;strokeLinecap:round;strokeLinejoin:round;stroke-miterlimit:10;stroke-dasharray:none;stroke-opacity:1" transform="translate(141.634 241.132)" fill="none" stroke="#1f2937" strokeWidth="20" strokeLinecap="round" strokeLinejoin="round" stroke-miterlimit="10" stroke-dasharray="none" stroke-opacity="" data-original="#000000" class="" opacity="1"></path><path d="M0 0v17.858" style="strokeWidth:20;strokeLinecap:round;strokeLinejoin:round;stroke-miterlimit:10;stroke-dasharray:none;stroke-opacity:1" transform="translate(141.634 104.195)" fill="none" stroke="#1f2937" strokeWidth="20" strokeLinecap="round" strokeLinejoin="round" stroke-miterlimit="10" stroke-dasharray="none" stroke-opacity="" data-original="#000000" class="" opacity="1"></path><path d="M0 0c0-16.099-13.05-29.149-29.148-29.149-16.099 0-29.149 13.05-29.149 29.149s13.05 29.149 29.149 29.149C-13.05 29.149 0 16.099 0 0Z" style="strokeWidth:20;strokeLinecap:round;strokeLinejoin:round;stroke-miterlimit:10;stroke-dasharray:none;stroke-opacity:1" transform="translate(170.782 349.925)" fill="none" stroke="#1f2937" strokeWidth="20" strokeLinecap="round" strokeLinejoin="round" stroke-miterlimit="10" stroke-dasharray="none" stroke-opacity="" data-original="#000000" class="" opacity="1"></path><path d="m0 0-123.988 123.988" style="strokeWidth:20;strokeLinecap:round;strokeLinejoin:round;stroke-miterlimit:10;stroke-dasharray:none;stroke-opacity:1" transform="translate(133.988 358.625)" fill="none" stroke="#1f2937" strokeWidth="20" strokeLinecap="round" strokeLinejoin="round" stroke-miterlimit="10" stroke-dasharray="none" stroke-opacity="" data-original="#000000" class="" opacity="1"></path><path d="m0 0-114.77 114.77-43.85-43.851v-88.132l70.708-70.708 25.74 25.742" style="strokeWidth:20;strokeLinecap:round;strokeLinejoin:round;stroke-miterlimit:10;stroke-dasharray:none;stroke-opacity:1" transform="translate(418.464 198.6)" fill="none" stroke="#1f2937" strokeWidth="20" strokeLinecap="round" strokeLinejoin="round" stroke-miterlimit="10" stroke-dasharray="none" stroke-opacity="" data-original="#000000" class="" opacity="1"></path><path d="m0 0 23.858 23.858" style="strokeWidth:20;strokeLinecap:round;strokeLinejoin:round;stroke-miterlimit:10;stroke-dasharray:none;stroke-opacity:1" transform="translate(290.019 215.038)" fill="none" stroke="#1f2937" strokeWidth="20" strokeLinecap="round" strokeLinejoin="round" stroke-miterlimit="10" stroke-dasharray="none" stroke-opacity="" data-original="#000000" class="" opacity="1"></path><path d="m0 0 23.858 23.858" style="strokeWidth:20;strokeLinecap:round;strokeLinejoin:round;stroke-miterlimit:10;stroke-dasharray:none;stroke-opacity:1" transform="translate(319.946 185.11)" fill="none" stroke="#1f2937" strokeWidth="20" strokeLinecap="round" strokeLinejoin="round" stroke-miterlimit="10" stroke-dasharray="none" stroke-opacity="" data-original="#000000" class="" opacity="1"></path><path d="M0 0v0" style="strokeWidth:20;strokeLinecap:round;strokeLinejoin:round;stroke-miterlimit:10;stroke-dasharray:none;stroke-opacity:1" transform="translate(23.423 312.397)" fill="none" stroke="#1f2937" strokeWidth="20" strokeLinecap="round" strokeLinejoin="round" stroke-miterlimit="10" stroke-dasharray="none" stroke-opacity="" data-original="#000000" class="" opacity="1"></path><path d="M0 0v0" style="strokeWidth:20;strokeLinecap:round;strokeLinejoin:round;stroke-miterlimit:10;stroke-dasharray:none;stroke-opacity:1" transform="translate(388.505 168.638)" fill="none" stroke="#1f2937" strokeWidth="20" strokeLinecap="round" strokeLinejoin="round" stroke-miterlimit="10" stroke-dasharray="none" stroke-opacity="" data-original="#000000" class="" opacity="1"></path></g></g></svg>