<svg width="512" height="512" viewBox="0 0 512 512" fill="none" xmlns="http://www.w3.org/2000/svg">
<g clipPath="url(#clip0_156850_316)">
<path d="M266.253 466.36H223.315C219.229 466.36 215.148 464.954 211.818 462.398C199.627 453.052 186.647 450.308 174.057 449.151V322.096C184.829 310.271 196.374 301.654 207.56 293.305C232.813 274.457 256.665 256.654 254.244 209.978C254.607 202.645 258.44 198.606 265.744 197.86C270.77 197.86 275.291 201.177 276.74 205.929C279.675 215.55 281.739 224.456 283.046 233.155C283.662 237.251 287.482 240.075 291.578 239.456C295.675 238.84 298.495 235.02 297.88 230.924C296.461 221.491 294.239 211.884 291.087 201.554C287.679 190.373 277.495 182.861 265.744 182.861C248.928 184.577 240.101 193.877 239.265 210.759C241.271 249.428 223.368 262.791 198.588 281.285C190.832 287.074 182.399 293.369 174.044 300.968V286.137C174.044 281.691 170.371 279.235 166.541 278.637L98.344 278.667C94.204 278.669 90.848 282.026 90.848 286.167V360.684C90.848 364.826 94.206 368.184 98.348 368.184C102.49 368.184 105.848 364.826 105.848 360.684V293.663L159.046 293.64V466.325L105.848 466.356V393.373C105.848 389.231 102.49 385.873 98.348 385.873C94.206 385.873 90.848 389.231 90.848 393.373V473.86C90.848 478.306 94.522 480.762 98.352 481.36L166.549 481.32C170.689 481.318 174.044 477.961 174.044 473.82V464.229C185.721 465.431 194.346 467.904 202.687 474.298C208.617 478.852 215.943 481.359 223.314 481.359H266.252C270.394 481.359 273.752 478.001 273.752 473.859C273.752 469.717 270.396 466.36 266.253 466.36Z" fill="#1F2937"/>
<path d="M135.911 349.777V330.653C135.911 326.511 132.553 323.153 128.411 323.153C124.269 323.153 120.911 326.511 120.911 330.653V349.777C120.911 353.919 124.269 357.277 128.411 357.277C132.553 357.277 135.911 353.919 135.911 349.777Z" fill="#1F2937"/>
<path d="M405.22 340.444C419.336 321.43 405.115 294.151 381.902 294.151L293.759 294.147C296.626 284.721 298.463 275.065 299.238 265.323C299.566 261.194 296.485 257.581 292.356 257.252C288.221 256.925 284.613 260.005 284.285 264.134C283.337 276.061 280.73 287.373 276.319 298.705C275.932 299.609 275.718 300.605 275.718 301.651V319.961C275.718 340.744 258.809 357.653 238.026 357.653C233.884 357.653 230.526 361.011 230.526 365.153C230.526 369.295 233.884 372.653 238.026 372.653C267.081 372.653 290.717 349.016 290.717 319.962V309.147H311.798C304.302 322.666 310.164 341.849 323.884 348.964C316.273 360.475 316.273 371.986 323.884 383.498C303.335 394.154 303.335 424.414 323.884 435.07C317.048 445.296 316.352 455.726 321.795 466.362H298.942C294.8 466.362 291.442 469.72 291.442 473.862C291.442 478.004 294.799 481.362 298.942 481.362L371.903 481.364C395.116 481.364 409.337 454.084 395.221 435.07C410.263 427.269 415.452 405.799 405.22 392.017C425.769 381.359 425.769 351.1 405.22 340.444ZM323.176 323.177C323.176 315.442 329.469 309.15 337.203 309.15H381.903C389.637 309.15 395.93 315.442 395.93 323.177C395.93 330.912 389.637 337.204 381.903 337.204H337.203C329.469 337.204 323.176 330.911 323.176 323.177ZM371.904 466.362H347.356C347.304 466.361 347.253 466.36 347.201 466.36H346.98C339.348 466.24 333.176 459.995 333.176 452.335C333.176 444.6 339.469 438.308 347.203 438.308H371.904C379.638 438.308 385.931 444.6 385.931 452.335C385.931 460.07 379.638 466.362 371.904 466.362ZM381.902 423.309H337.202C329.468 423.309 323.175 417.017 323.175 409.282C323.175 401.547 329.468 395.255 337.202 395.255H381.902C389.636 395.255 395.929 401.547 395.929 409.282C395.929 417.017 389.637 423.309 381.902 423.309ZM391.902 380.256H347.202C339.468 380.256 333.175 373.964 333.175 366.23C333.175 358.495 339.468 352.203 347.202 352.203H391.902C399.636 352.203 405.929 358.495 405.929 366.23C405.929 373.964 399.636 380.256 391.902 380.256Z" fill="#1F2937"/>
<path d="M204.542 86.612L219.712 101.4L216.131 122.281C214.54 135.688 224.415 142.813 237.169 137.566L255.92 127.707L274.672 137.566C284.133 142.538 297.833 134.658 295.71 122.281L292.129 101.399L307.299 86.612C316.536 77.064 313.411 64.065 299.263 61.881L278.298 58.834L268.922 39.836C263.537 28.566 249.442 26.616 242.918 39.836L233.542 58.834L212.577 61.881C198.916 64.815 195.416 76.565 204.542 86.612ZM235.959 73.641C240.683 72.955 244.764 69.99 246.877 65.709L255.921 47.384L264.965 65.709C267.077 69.99 271.159 72.955 275.883 73.641L296.105 76.58L281.472 90.844C278.054 94.176 276.496 98.974 277.302 103.678L280.756 123.819L262.668 114.31C258.17 112.089 253.673 112.089 249.175 114.31L231.088 123.819L234.542 103.677C235.349 98.972 233.789 94.175 230.372 90.844L215.739 76.58L235.959 73.641Z" fill="#1F2937"/>
<path d="M94.157 126.609L109.327 141.396L105.746 162.277C103.623 174.652 117.322 182.536 126.784 177.563L145.535 167.704L164.287 177.563C176.166 182.862 186.416 175.437 185.325 162.278L181.744 141.398L196.915 126.61C205.666 117.189 202.666 105.064 188.879 101.879L167.914 98.8316L158.538 79.8336C151.168 67.1896 139.544 68.3146 132.534 79.8336L123.158 98.8316L102.193 101.879C88.295 104.814 84.92 116.688 94.157 126.609ZM125.576 113.637C130.299 112.95 134.379 109.985 136.492 105.706L145.536 87.3806L154.58 105.706C156.692 109.986 160.773 112.951 165.497 113.638L185.72 116.577L171.088 130.84C167.669 134.171 166.11 138.97 166.917 143.674L170.371 163.814L152.284 154.305C147.786 152.083 143.288 152.083 138.789 154.305L120.702 163.814L124.156 143.674C124.963 138.97 123.405 134.172 119.986 130.84L105.353 116.576L125.576 113.637Z" fill="#1F2937"/>
<path d="M95.478 252.271L91.897 231.39L107.067 216.602C116.419 207.809 112.047 194.06 99.032 191.871L78.066 188.824L68.69 169.826C64.671 160.311 49.211 156.606 42.686 169.826L33.31 188.824L12.345 191.871C-1.32697 194.81 -3.07697 207.56 4.31003 216.603L19.48 231.391L15.899 252.272C14.423 266.059 24.173 273.558 36.937 267.557L55.689 257.698L74.441 267.557C83.902 272.529 97.601 264.646 95.478 252.271ZM81.239 220.832C77.821 224.163 76.262 228.961 77.068 233.666L80.522 253.806L62.434 244.297C58.21 242.076 53.166 242.076 48.94 244.297L30.853 253.806L34.307 233.665C35.114 228.96 33.555 224.162 30.137 220.832L15.504 206.568L35.725 203.63C40.449 202.944 44.53 199.979 46.643 195.698L55.687 177.373L64.731 195.697C66.844 199.978 70.925 202.943 75.648 203.629L95.87 206.568L81.239 220.832Z" fill="#1F2937"/>
<path d="M499.482 191.872L478.518 188.825L469.141 169.827C462.531 156.437 449.661 156.606 443.137 169.827L433.76 188.825L412.796 191.872C399.104 194.436 395.533 206.435 404.759 216.603L419.93 231.391L416.348 252.272C414.226 264.648 427.925 272.529 437.386 267.557L456.137 257.698L474.889 267.557C487.653 273.309 497.653 265.81 495.926 252.272L492.345 231.391L507.516 216.603C516.029 208.435 511.904 193.81 499.482 191.872ZM481.689 220.833C478.271 224.165 476.713 228.963 477.52 233.667L480.974 253.807L462.886 244.298C458.388 242.077 453.89 242.077 449.392 244.298L431.305 253.807L434.759 233.667C435.567 228.961 434.007 224.163 430.589 220.833L415.956 206.569L436.179 203.63C440.902 202.944 444.983 199.979 447.096 195.699L456.141 177.374L465.185 195.698C467.297 199.979 471.378 202.944 476.102 203.63L496.325 206.569L481.689 220.833Z" fill="#1F2937"/>
<path d="M315.222 126.609L330.392 141.396L326.81 162.277C325.161 175.811 335.035 182.86 347.848 177.562L366.599 167.703L385.351 177.562C394.813 182.534 408.512 174.653 406.389 162.277L402.808 141.396L417.978 126.609C427.03 115.688 424.28 104.688 409.942 101.878L388.977 98.8307L379.6 79.8337C374.282 69.0557 358.915 69.0577 353.596 79.8337L344.22 98.8317L323.255 101.879C309.162 104.564 305.662 115.813 315.222 126.609ZM346.641 113.637C351.364 112.95 355.445 109.985 357.558 105.705L366.602 87.3807L375.646 105.705C377.758 109.985 381.839 112.95 386.564 113.637L406.786 116.576L392.153 130.84C388.735 134.172 387.177 138.97 387.983 143.674L391.437 163.815L373.351 154.306C368.853 152.085 364.354 152.085 359.855 154.306L341.768 163.815L345.222 143.675C346.03 138.971 344.471 134.173 341.053 130.841L326.42 116.577L346.641 113.637Z" fill="#1F2937"/>
</g>
<defs>
<clipPath id="clip0_156850_316">
<rect width="512" height="512" fill="white"/>
</clipPath>
</defs>
</svg>
