<svg xmlns="http://www.w3.org/2000/svg" version="1.1" xmlns:xlink="http://www.w3.org/1999/xlink" width="512" height="512" x="0" y="0" viewBox="0 0 512 512.002" style="enable-background:new 0 0 512 512" xml:space="preserve" class=""><g><path d="M420.09 54.57h-8.578c-4.024-10.414-14.14-17.82-25.957-17.82h-9.801a103.425 103.425 0 0 0-5.406-14.89C364.34 8.577 351.043 0 336.468 0H43.09C28.516 0 15.219 8.578 9.21 21.86a103.64 103.64 0 0 0 0 85.425 37.143 37.143 0 0 0 10.938 13.922V241c0 19.852 16.149 36 36 36 19.852 0 36-16.148 36-36v-50.594c0-8.058 6.555-14.613 14.614-14.613 8.058 0 14.61 6.555 14.61 14.613v9.754c0 17.559 14.284 31.84 31.839 31.84s31.836-14.281 31.836-31.84v-27.3c0-4.524 3.68-8.204 8.203-8.204h36.793c17.703 0 32.105-14.402 32.105-32.105v-3.41h74.317c14.574 0 27.875-8.578 33.879-21.856 2.195-4.851 4-9.832 5.41-14.894h9.797c11.816 0 21.937-7.407 25.96-17.82h8.579c11.144 0 20.21 9.066 20.21 20.21v44.39c0 10.735-8.007 20.009-18.628 21.575l-169.7 24.988c-14.304 2.106-27.382 9.293-36.831 20.235s-14.653 24.93-14.653 39.386v47.293c0 .743.082 1.47.239 2.168-10.579.012-19.18 8.621-19.18 19.2v23.921c-6.926.934-12.281 6.883-12.281 14.06V471.28c0 22.453 18.27 40.723 40.722 40.723 22.45 0 40.719-18.27 40.719-40.723V351.996c0-7.176-5.355-13.125-12.281-14.062v-23.922c0-10.242-8.063-18.64-18.18-19.172.16-.707.242-1.442.242-2.195v-47.29c0-19.824 14.79-36.949 34.399-39.835l169.699-24.989c20.36-3 35.715-20.781 35.715-41.36v-44.39c0-22.172-18.04-40.21-40.211-40.21zm-177.938 77.98c0 6.677-5.433 12.106-12.105 12.106H193.25c-15.55 0-28.203 12.653-28.203 28.203v27.301c0 6.528-5.309 11.84-11.836 11.84s-11.836-5.313-11.836-11.84v-9.754c0-19.086-15.527-34.613-34.613-34.613s-34.61 15.527-34.61 34.613V241c0 8.82-7.18 16-16 16-8.824 0-16-7.18-16-16V129.023c.235.02.473.036.715.051h.035c.102.008.203.016.305.02.027 0 .05.004.078.004l.27.011c.03 0 .066.004.097.004.086.004.168.004.25.008.04 0 .078.004.114.004.082.004.16.004.238.008.043 0 .082 0 .125.004.078 0 .156 0 .234.004h.125c.117 0 .235.004.352.004h199.062zm94.317-23.41H43.089c-.097 0-.194 0-.292-.003h-.11c-.058-.004-.117-.004-.18-.008-.042 0-.089 0-.132-.004-.05-.004-.102-.004-.152-.008-.051-.004-.102-.004-.153-.008-.039-.004-.078-.004-.117-.007a42.5 42.5 0 0 1-.18-.012c-.027-.004-.05-.004-.074-.008a20.16 20.16 0 0 1-.976-.105c-.012-.004-.024-.004-.04-.008a4.909 4.909 0 0 1-.277-.043c-.07-.012-.14-.02-.21-.031l-.071-.012a3.12 3.12 0 0 0-.203-.04c-.024-.003-.047-.007-.07-.015-.067-.012-.133-.023-.2-.039-.086-.016-.175-.035-.265-.055l-.051-.011c-.082-.02-.164-.035-.242-.055l-.043-.012c-.09-.02-.176-.043-.266-.066h-.004a17.227 17.227 0 0 1-11.347-9.55 83.572 83.572 0 0 1-7.426-33.56h100.644c5.52 0 10-4.476 10-10 0-5.523-4.48-10-10-10H22.207a83.502 83.502 0 0 1 5.227-15.378A17.213 17.213 0 0 1 43.09 20h293.379a17.217 17.217 0 0 1 15.656 10.102 83.64 83.64 0 0 1 0 68.937 17.217 17.217 0 0 1-15.656 10.102zm49.086-36.75h-6.285c.398-5.206.398-10.43 0-15.636h6.285c4.312 0 7.816 3.504 7.816 7.816s-3.504 7.82-7.816 7.82zM218.425 337.81h-16.878v-22.996h16.879zm12.282 133.472c0 11.422-9.297 20.719-20.719 20.719-11.425 0-20.722-9.293-20.722-20.719V357.81h41.441zm0 0" fill="#1c2530" opacity="1" data-original="#000000" class=""></path><path d="M160.676 45.48h-.024c-5.523 0-9.988 4.477-9.988 10 0 5.524 4.488 10 10.012 10 5.523 0 10-4.476 10-10 0-5.523-4.477-10-10-10zm0 0" fill="#1c2530" opacity="1" data-original="#000000" class=""></path></g></svg>