<svg xmlns="http://www.w3.org/2000/svg" version="1.1" xmlns:xlink="http://www.w3.org/1999/xlink" width="512" height="512" x="0" y="0" viewBox="0 0 682.667 682.667" style="enable-background:new 0 0 512 512" xml:space="preserve" class=""><g><defs><clipPath id="a" clipPathUnits="userSpaceOnUse"><path d="M0 512h512V0H0Z" fill="#1c2530" opacity="1" data-original="#000000"></path></clipPath></defs><g clipPath="url(#a)" transform="matrix(1.33333 0 0 -1.33333 0 682.667)"><path d="m0 0-73.836 73.837c9.264 31.846 1.451 67.737-23.657 92.846-29.967 29.966-75.133 35.43-110.669 16.436l49.548-49.548c10.661-10.66 10.661-27.945 0-38.606-10.661-10.661-27.946-10.661-38.607 0l-49.541 49.542c-19.676-36.815-13.11-83.963 19.762-113.84C-201.917 7.87-167.867.972-137.339 10.041L50.19-177.488c-9.264-31.847-1.452-67.738 23.657-92.847 29.966-29.966 75.133-35.43 110.668-16.436l-49.547 49.548c-10.661 10.661-10.661 27.945 0 38.606 10.661 10.661 27.945 10.661 38.606 0l49.541-49.541c19.676 36.814 13.111 83.962-19.762 113.839-25.082 22.797-59.132 29.696-89.66 20.626L39.669-39.669" style="strokeWidth:20;strokeLinecap:round;strokeLinejoin:round;stroke-miterlimit:10;stroke-dasharray:none;stroke-opacity:1" transform="translate(267.823 307.851)" fill="none" stroke="#1c2530" strokeWidth="20" strokeLinecap="round" strokeLinejoin="round" stroke-miterlimit="10" stroke-dasharray="none" stroke-opacity="" data-original="#000000" opacity="1" class=""></path><path d="m0 0 44.391-44.391" style="strokeWidth:20;strokeLinecap:round;strokeLinejoin:round;stroke-miterlimit:10;stroke-dasharray:none;stroke-opacity:1" transform="translate(274.935 237.09)" fill="none" stroke="#1c2530" strokeWidth="20" strokeLinecap="round" strokeLinejoin="round" stroke-miterlimit="10" stroke-dasharray="none" stroke-opacity="" data-original="#000000" opacity="1" class=""></path><path d="m0 0 42.99-42.99" style="strokeWidth:20;strokeLinecap:round;strokeLinejoin:round;stroke-miterlimit:10;stroke-dasharray:none;stroke-opacity:1" transform="translate(192.674 319.351)" fill="none" stroke="#1c2530" strokeWidth="20" strokeLinecap="round" strokeLinejoin="round" stroke-miterlimit="10" stroke-dasharray="none" stroke-opacity="" data-original="#000000" opacity="1" class=""></path><path d="m0 0 47.465 47.465c10.332 10.332 10.332 27.083 0 37.415l-50.759 50.759c-10.332 10.332-27.083 10.332-37.415 0L-173.84 2.508c-24.349-24.349-24.349-63.825 0-88.174v0c24.349-24.349 63.825-24.349 88.174 0L-63.64-63.64" style="strokeWidth:20;strokeLinecap:round;strokeLinejoin:round;stroke-miterlimit:10;stroke-dasharray:none;stroke-opacity:1" transform="translate(202.13 113.897)" fill="none" stroke="#1c2530" strokeWidth="20" strokeLinecap="round" strokeLinejoin="round" stroke-miterlimit="10" stroke-dasharray="none" stroke-opacity="" data-original="#000000" opacity="1" class=""></path><path d="m0 0-37.789 37.789-181.057-181.058 37.788-37.789z" style="strokeWidth:20;strokeLinecap:round;strokeLinejoin:round;stroke-miterlimit:10;stroke-dasharray:none;stroke-opacity:1" transform="translate(424.168 386.32)" fill="none" stroke="#1c2530" strokeWidth="20" strokeLinecap="round" strokeLinejoin="round" stroke-miterlimit="10" stroke-dasharray="none" stroke-opacity="" data-original="#000000" opacity="1" class=""></path><path d="m0 0 84.238-84.238" style="strokeWidth:20;strokeLinecap:round;strokeLinejoin:round;stroke-miterlimit:10;stroke-dasharray:none;stroke-opacity:1" transform="translate(144.056 228.234)" fill="none" stroke="#1c2530" strokeWidth="20" strokeLinecap="round" strokeLinejoin="round" stroke-miterlimit="10" stroke-dasharray="none" stroke-opacity="" data-original="#000000" opacity="1" class=""></path><path d="M0 0h40.748l41.705 80.534-28.216 28.215-80.533-41.705V26.478" style="strokeWidth:20;strokeLinecap:round;strokeLinejoin:round;stroke-miterlimit:10;stroke-dasharray:none;stroke-opacity:1" transform="translate(419.236 392.88)" fill="none" stroke="#1c2530" strokeWidth="20" strokeLinecap="round" strokeLinejoin="round" stroke-miterlimit="10" stroke-dasharray="none" stroke-opacity="" data-original="#000000" opacity="1" class=""></path><path d="M0 0v0" style="strokeWidth:20;strokeLinecap:round;strokeLinejoin:round;stroke-miterlimit:10;stroke-dasharray:none;stroke-opacity:1" transform="translate(170.31 82.077)" fill="none" stroke="#1c2530" strokeWidth="20" strokeLinecap="round" strokeLinejoin="round" stroke-miterlimit="10" stroke-dasharray="none" stroke-opacity="" data-original="#000000" opacity="1" class=""></path></g></g></svg>