<svg width="800" height="800" viewBox="0 0 800 800" fill="none" xmlns="http://www.w3.org/2000/svg">
<path d="M450 66.6665C450 66.6665 527.783 73.7375 626.777 172.733C725.77 271.728 732.843 349.51 732.843 349.51" stroke="#FF5500" strokeWidth="50" strokeLinecap="round"/>
<path d="M473.566 184.521C473.566 184.521 506.566 193.95 556.063 243.447C605.56 292.945 614.99 325.943 614.99 325.943" stroke="#FF5500" strokeWidth="50" strokeLinecap="round"/>
<path d="M125.062 230.858C124.322 217.071 112.545 206.494 98.7577 207.234C84.9704 207.974 74.3937 219.751 75.1337 233.538L125.062 230.858ZM157.257 103.071C147.748 113.082 148.155 128.906 158.166 138.415C168.177 147.923 184.001 147.516 193.51 137.505L157.257 103.071ZM355.47 660.41C367.16 667.757 382.593 664.237 389.94 652.547C397.287 640.857 393.763 625.423 382.073 618.077L355.47 660.41ZM503.767 668.613C490.253 665.783 477.003 674.447 474.173 687.96C471.343 701.473 480.003 714.723 493.52 717.553L503.767 668.613ZM521.487 518.123L536.667 502.14L500.413 467.707L485.233 483.69L521.487 518.123ZM586.623 495.41L650.307 532.067L675.25 488.733L611.567 452.077L586.623 495.41ZM662.597 608.063L615.247 657.917L651.5 692.35L698.85 642.5L662.597 608.063ZM278.64 531.957C149.436 395.927 127.763 281.185 125.062 230.858L75.1337 233.538C78.4421 295.179 104.615 421.343 242.387 566.39L278.64 531.957ZM324.485 310.72L334.047 300.654L297.792 266.22L288.232 276.285L324.485 310.72ZM341.557 175.337L299.523 115.888L258.697 144.753L300.73 204.203L341.557 175.337ZM306.358 293.502C288.232 276.285 288.209 276.31 288.185 276.334C288.178 276.343 288.154 276.367 288.138 276.384C288.107 276.418 288.074 276.452 288.042 276.488C287.976 276.558 287.908 276.632 287.838 276.709C287.698 276.863 287.55 277.029 287.394 277.208C287.082 277.567 286.74 277.977 286.373 278.44C285.641 279.366 284.812 280.504 283.942 281.863C282.198 284.588 280.307 288.177 278.706 292.678C275.449 301.83 273.674 313.95 275.892 329.086C280.249 358.823 299.734 398.813 350.647 452.413L386.9 417.98C339.31 367.877 327.588 337.02 325.363 321.837C324.29 314.512 325.381 310.652 325.812 309.44C326.054 308.759 326.213 308.57 326.058 308.812C325.983 308.93 325.833 309.15 325.581 309.469C325.454 309.628 325.303 309.812 325.121 310.021C325.031 310.125 324.933 310.235 324.827 310.352C324.774 310.41 324.719 310.47 324.662 310.531C324.633 310.562 324.604 310.593 324.575 310.624C324.56 310.64 324.537 310.664 324.53 310.672C324.507 310.696 324.485 310.72 306.358 293.502ZM350.647 452.413C401.407 505.857 439.747 526.867 468.997 531.617C484.003 534.053 496.153 532.107 505.353 528.48C509.85 526.707 513.41 524.623 516.08 522.73C517.41 521.783 518.52 520.887 519.417 520.103C519.863 519.71 520.26 519.343 520.603 519.01C520.777 518.847 520.933 518.687 521.08 518.54C521.153 518.467 521.227 518.393 521.293 518.323C521.327 518.29 521.36 518.257 521.39 518.223C521.407 518.207 521.43 518.18 521.44 518.173C521.463 518.147 521.487 518.123 503.36 500.907C485.233 483.69 485.257 483.667 485.277 483.643C485.287 483.633 485.307 483.61 485.323 483.593C485.353 483.563 485.383 483.533 485.41 483.503C485.47 483.443 485.527 483.383 485.583 483.327C485.693 483.217 485.8 483.11 485.9 483.013C486.103 482.82 486.283 482.653 486.443 482.513C486.763 482.233 487 482.053 487.153 481.947C487.463 481.723 487.433 481.8 487.007 481.967C486.363 482.22 483.337 483.29 477.01 482.263C463.593 480.083 434.637 468.24 386.9 417.98L350.647 452.413ZM299.523 115.888C265.737 68.1018 198.129 60.0398 157.257 103.071L193.51 137.505C210.937 119.157 241.618 120.598 258.697 144.753L299.523 115.888ZM615.247 657.917C605.943 667.71 596.213 672.957 586.753 673.89L591.667 723.65C616.567 721.19 636.72 707.91 651.5 692.35L615.247 657.917ZM334.047 300.654C366.297 266.698 368.58 213.559 341.557 175.337L300.73 204.203C314.801 224.105 312.643 250.584 297.792 266.22L334.047 300.654ZM650.307 532.067C677.67 547.817 683.023 586.56 662.597 608.063L698.85 642.5C742.35 596.703 729.68 520.063 675.25 488.733L650.307 532.067ZM536.667 502.14C549.513 488.613 569.533 485.573 586.623 495.41L611.567 452.077C574.95 431 529.54 437.043 500.413 467.707L536.667 502.14ZM382.073 618.077C349.283 597.47 314.383 569.587 278.64 531.957L242.387 566.39C280.855 606.89 318.966 637.47 355.47 660.41L382.073 618.077ZM586.753 673.89C568.537 675.69 539.707 676.14 503.767 668.613L493.52 717.553C535.137 726.267 569.14 725.873 591.667 723.65L586.753 673.89Z" fill="#FF5500"/>
</svg>
