<svg width="800" height="800" viewBox="0 0 800 800" fill="none" xmlns="http://www.w3.org/2000/svg">
<path d="M333.333 250V206.667C333.333 169.33 333.333 150.661 340.6 136.401C346.99 123.856 357.19 113.658 369.733 107.266C383.993 100 402.663 100 440 100H593.333C630.67 100 649.34 100 663.6 107.266C676.143 113.658 686.343 123.856 692.733 136.401C700 150.661 700 169.33 700 206.667V593.333C700 630.67 700 649.34 692.733 663.6C686.343 676.143 676.143 686.343 663.6 692.733C649.34 700 630.67 700 593.333 700H533.333M466.667 233.333H566.667M466.667 366.667H566.667M100 533.333L247.457 399.28C260.127 387.763 266.461 382.003 273.638 379.823C279.959 377.9 286.708 377.9 293.029 379.823C300.205 382.003 306.54 387.763 319.209 399.28L466.667 533.333M166.667 472.727V646.667C166.667 665.337 166.667 674.67 170.3 681.8C173.496 688.073 178.595 693.17 184.867 696.367C191.997 700 201.332 700 220 700H346.667C365.337 700 374.67 700 381.8 696.367C388.073 693.17 393.17 688.073 396.367 681.8C400 674.67 400 665.337 400 646.667V472.727" stroke="#FF5500" stroke-width="50" stroke-linecap="round" stroke-linejoin="round"/>
</svg>
