<svg xmlns="http://www.w3.org/2000/svg" version="1.1" xmlns:xlink="http://www.w3.org/1999/xlink" width="512" height="512" x="0" y="0" viewBox="0 0 100 100" style="enable-background:new 0 0 512 512" xml:space="preserve" class=""><g><path fill="#fa5100" d="m35.151 58.314 3.615-3.446c14.515-14.6 29.058-29.17 43.657-43.629 1.597-1.57 3.643-3.054 5.716-3.615 3.447-.925 6.501.448 8.295 3.7 1.849 3.334 1.177 6.556-1.121 9.47-6.529 8.378-13.086 16.757-19.587 25.135-10.62 13.675-21.156 27.377-31.804 41.023-5.968 7.678-10.788 7.594-16.476-.168C18.059 73.922 14.248 66.665 4.86 53.775c-3.167-4.343-3.139-8.826.028-11.797 3.194-2.914 7.733-2.634 11.769.87z" opacity="1" data-original="#ff8818"></path></g></svg>