<svg xmlns="http://www.w3.org/2000/svg" version="1.1" xmlns:xlink="http://www.w3.org/1999/xlink" width="512" height="512" x="0" y="0" viewBox="0 0 512 512" style="enable-background:new 0 0 512 512" xml:space="preserve" class=""><g><path fill="#d94900" d="M283.19 488.388H169.546l25.586-98.579h62.471z" opacity="1" data-original="#bcd6f9" class=""></path><path fill="#fff5ea" d="M242.891 464.776h-90.07c-20.628 0-37.351 16.723-37.351 37.351 0 5.452 4.42 9.872 9.872 9.872h144.621l4.121-2.747v-13.284c0-17.226-13.966-31.192-31.193-31.192z" opacity="1" data-original="#eaf2ff" class=""></path><path fill="#f9ecdb" d="M299.914 464.776H238.77c17.227 0 31.193 13.966 31.193 31.193V512h57.43c5.452 0 9.872-4.42 9.872-9.872 0-20.629-16.722-37.352-37.351-37.352z" opacity="1" data-original="#dbe8f9" class=""></path><path fill="#f9b99b" d="M392.634 87.028c0-15.753-12.771-28.524-28.524-28.524H28.535C12.782 58.504.011 71.275.011 87.028v270.758l9.272 12.362h383.352V87.028z" opacity="1" data-original="#9bc4f9" class=""></path><path fill="#92d6e2" d="M385.423 87.028v283.121h58.031l9.272-12.362V87.028c0-15.753-12.771-28.524-28.524-28.524H356.9c15.752 0 28.523 12.77 28.523 28.524z" opacity="1" data-original="#92d6e2" class=""></path><path fill="#ad3d03" d="M210.098 84.238v50.701h22.736c7.55 0 13.671-6.121 13.671-13.671V97.909c0-7.55-6.121-13.671-13.671-13.671zM94.397 84.238v50.701H71.661c-7.55 0-13.671-6.121-13.671-13.671V97.909c0-7.55 6.121-13.671 13.671-13.671z" opacity="1" data-original="#c9e0fd" class=""></path><path fill="#fff5ea" d="M392.634 383.196v-25.41H.011v25.41c0 15.753 12.77 28.524 28.524 28.524H364.11c15.753 0 28.524-12.771 28.524-28.524z" opacity="1" data-original="#eaf2ff" class=""></path><path fill="#f9a67f" d="M424.201 58.504h-67.302c15.753 0 28.524 12.771 28.524 28.524v296.168c0 15.753-12.771 28.524-28.524 28.524h67.302c15.753 0 28.524-12.771 28.524-28.524V87.028c0-15.754-12.77-28.524-28.524-28.524z" opacity="1" data-original="#7fb2f9" class=""></path><path fill="#f9ecdb" d="M385.423 357.786v25.41c0 15.753-12.771 28.524-28.524 28.524h67.302c15.753 0 28.524-12.771 28.524-28.524v-25.41z" opacity="1" data-original="#dbe8f9" class=""></path><path fill="#ad3d03" d="M489.016 3.859h-152.98c-12.688 0-22.973 10.285-22.973 22.973v132.645c0 11.584 8.575 21.161 19.723 22.739a3.42 3.42 0 0 1 2.953 3.382v50.217c0 3.348 4.225 4.815 6.299 2.188l40.093-50.758a12.612 12.612 0 0 1 9.899-4.795h96.987c12.688 0 22.973-10.285 22.973-22.973V26.832c-.001-12.688-10.286-22.973-22.974-22.973z" opacity="1" data-original="#ffe07d" class=""></path><g fill="#ffd064"><path d="M335.738 185.597v50.217c0 3.348 4.225 4.815 6.3 2.188l40.093-50.758a12.612 12.612 0 0 1 9.899-4.795h-58.425a3.404 3.404 0 0 1 2.133 3.148zM489.016 3.859h-67.302c12.688 0 22.973 10.285 22.973 22.973v132.645c0 12.688-10.286 22.973-22.973 22.973h67.302c12.688 0 22.973-10.285 22.973-22.973V26.832c0-12.688-10.285-22.973-22.973-22.973z" fill="#ad3d03" opacity="1" data-original="#ffd064" class=""></path></g><path fill="#ffddce" d="M186.194 203.028v-48.776H118.3v48.776c0 8.299-5.754 15.445-13.786 17.292 0 0 1.801 40.103 47.733 40.103s50.639-39.515 50.639-39.515l-2.289-.44a17.761 17.761 0 0 1-14.403-17.44z" opacity="1" data-original="#ffddce" class=""></path><path fill="#fa5100" d="M243.564 327.495c0-40.553-21.7-76.792-55.006-96.545-15.268 8.034-34.591 13.55-34.591 13.55s-37.23-10.73-49.452-24.18c-.206.047-.408.107-.617.147l-18.825 3.623C35.696 233.592.011 276.8.011 327.083v30.703h243.553z" opacity="1" data-original="#e07f84" class=""></path><path fill="#ad3d03" d="M231.669 277.203h-13.537c-6.205 0-11.235 5.03-11.235 11.235v6.743c0 6.205 5.03 11.235 11.235 11.235h23.445a111.769 111.769 0 0 0-9.908-29.213z" opacity="1" data-original="#ffe07d" class=""></path><path fill="#d94900" d="m219.422 224.09-16.536-3.182c-4.691 5.042-13.009 9.691-21.47 13.509 33.579 17.799 55.766 53.027 55.766 92.667v30.703h67.302v-30.703c0-50.284-35.685-93.492-85.062-102.994z" opacity="1" data-original="#db636e" class=""></path><path fill="#ffddce" d="M150.05 182.733c13.727-12.066 21.279-29.778 21.592-48.148l-.213-82.472c-.102-2.625.428-9.214-1.419-18.183l-.013-.062a65.176 65.176 0 0 0-8.89-21.902 70.576 70.576 0 0 0-9.29-.68c-35.188.548-66.991 27.436-66.83 66.211l.054 12.999.2 43.647c.453 17.839 7.931 34.98 21.361 46.585 6.59 5.695 14.803 10.939 24.741 14.199 7.273-3.312 13.496-7.613 18.707-12.194z" opacity="1" data-original="#ffddce" class=""></path><path fill="#ffcbbe" d="m219.272 95.36-.077-18.437c-.155-37.239-29.788-63.44-63.584-65.499 7.494 10.377 12.017 23.196 12.077 37.686l.218 84.459c-.304 17.843-7.639 35.047-20.972 46.766-5.584 4.908-12.364 9.486-20.389 12.805 7.556 3.126 16.217 5.132 26.05 5.201 20.003-.311 35.112-8.571 45.845-18.006 13.333-11.72 20.668-28.923 20.972-46.766z" opacity="1" data-original="#ffcbbe" class=""></path><path fill="#fa5100" d="M149.918 55.034h4.659c5.72.025 11.371-.933 16.854-2.548l-.001-.374c-.102-2.625.428-9.214-1.419-18.183l-.013-.062c-2.538-12.25-8.341-22.929-16.318-31.475L145.053 0h-28.782C90.26 0 69.174 21.086 69.174 47.098V87.17c0 5.095 3.224 9.631 8.035 11.307l12.928 4.501c4.519 1.573 9.238-1.786 9.23-6.571l-.027-24.458c-.05-11.895 9.436-21.578 21.187-21.628l.256-.001a34.011 34.011 0 0 1 10.552 1.635c6.02 1.934 12.259 3.106 18.583 3.079z" opacity="1" data-original="#756e78" class=""></path><path fill="#d94900" d="M214.857 27.376h-.69a6.91 6.91 0 0 1-6.911-6.911C207.256 9.162 198.094 0 186.792 0h-41.739c13.615 11.623 22.55 28.709 22.635 49.109l.011 4.355a70.44 70.44 0 0 0 5.461-1.51 34.016 34.016 0 0 1 10.552-1.635l.256.001c11.751.051 21.237 9.734 21.187 21.628l-.024 24.46c-.007 4.784 4.713 8.143 9.231 6.569l12.924-4.501a11.973 11.973 0 0 0 8.035-11.306V47.84c0-11.302-9.162-20.464-20.464-20.464z" opacity="1" data-original="#665e66" class=""></path><path fill="#fff5ea" d="M232.833 134.939h-1.782v18.929c0 4.206-3.422 7.628-7.628 7.628h-41.33a7.726 7.726 0 1 0 0 15.452h41.33c12.726 0 23.08-10.354 23.08-23.08v-32.599c.001 7.549-6.119 13.67-13.67 13.67z" opacity="1" data-original="#eaf2ff" class=""></path><path fill="#ad3d03" d="M191.481 184.015h-21.415c-8.17 0-14.793-6.623-14.793-14.793 0-8.17 6.623-14.793 14.793-14.793h21.415c8.17 0 14.793 6.623 14.793 14.793 0 8.17-6.623 14.793-14.793 14.793z" opacity="1" data-original="#ffd064" class=""></path><path fill="#ad3d03" d="m96.415 215.243-16.078 9.859 37.127 37.184a9.638 9.638 0 0 0 12.902.491l21.881-18.278-46.001-29.182a9.292 9.292 0 0 0-9.831-.074zM208.08 215.243l16.078 9.859-37.127 37.184a9.638 9.638 0 0 1-12.902.491L152.247 244.5l46.001-29.182a9.292 9.292 0 0 1 9.832-.075z" opacity="1" data-original="#d84a54" class=""></path><path fill="#ad3d03" d="M261.469 295.182v-6.743c0-6.205-5.03-11.235-11.235-11.235h-25.673a104.477 104.477 0 0 1 10.574 29.214h15.099c6.205-.001 11.235-5.031 11.235-11.236z" opacity="1" data-original="#ffd064" class=""></path><path fill="#eaf7f7" d="M418.78 33.253a7.726 7.726 0 1 0 0 15.452 7.726 7.726 0 0 0 0-15.452zM418.78 154.565a7.725 7.725 0 0 1-7.726-7.726V68.341a7.725 7.725 0 0 1 7.726-7.726 7.725 7.725 0 0 1 7.726 7.726v78.498a7.725 7.725 0 0 1-7.726 7.726z" opacity="1" data-original="#eaf7f7" class=""></path><g fill="#d84a54"><path d="M252.596 357.786v-24a7.726 7.726 0 1 0-15.452 0v24zM66.837 357.786v-24a7.726 7.726 0 1 0-15.452 0v24z" fill="#ad3d03" opacity="1" data-original="#d84a54" class=""></path></g></g></svg>