<svg xmlns="http://www.w3.org/2000/svg" version="1.1" xmlns:xlink="http://www.w3.org/1999/xlink" width="512" height="512" x="0" y="0" viewBox="0 0 512 512" style="enable-background:new 0 0 512 512" xml:space="preserve" class=""><g><path d="m480.439 84.335-.681-.119c-77.735-13.63-151.259-41.468-218.529-82.739a10.001 10.001 0 0 0-10.478.011C183.95 42.672 110.887 70.425 33.591 83.979l-2.033.356a10 10 0 0 0-8.273 9.85v130.896c0 66.67 23.011 131.998 64.795 183.951 41.783 51.952 100.656 88.438 165.774 102.736a10.088 10.088 0 0 0 4.296-.001c65.124-14.331 123.999-50.846 165.777-102.818 41.779-51.972 64.788-117.318 64.788-184.001V94.185a9.998 9.998 0 0 0-8.276-9.85zm-11.723 140.613c0 126.747-89.322 238.597-212.718 266.804C132.605 463.605 43.285 351.813 43.285 225.081V102.552c75.483-14 146.996-41.178 212.729-80.847 65.792 39.522 137.281 66.688 212.702 80.832v122.411z" fill="#1c2530" opacity="1" data-original="#000000" class=""></path><path d="M255.773 72.659a9.962 9.962 0 0 0 4.935-1.309l.102-.057.089-.05c4.812-2.703 6.486-8.774 3.787-13.588-2.701-4.815-8.83-6.508-13.645-3.814l-.22.124c-4.801 2.73-6.479 8.835-3.749 13.636a9.996 9.996 0 0 0 8.701 5.058zM211.745 74.222c-43.151 20.581-88.72 36.484-135.44 47.264a10 10 0 0 0-7.752 9.744v93.716c0 10.833.731 21.771 2.17 32.509.672 5.023 4.965 8.672 9.898 8.672.442 0 .89-.029 1.341-.09 5.474-.734 9.316-5.766 8.582-11.24a225.442 225.442 0 0 1-1.992-29.851v-85.809c45.425-11.046 89.73-26.796 131.802-46.863 4.986-2.377 7.099-8.346 4.722-13.331-2.379-4.985-8.349-7.097-13.331-4.721zM433.447 121.23c-5.522 0-10 4.477-10 10v93.716c0 88.906-52.529 170.478-133.825 207.815-5.018 2.305-7.219 8.242-4.914 13.261a10.004 10.004 0 0 0 9.094 5.829 9.956 9.956 0 0 0 4.167-.915c42.866-19.687 79.252-51.203 105.228-91.141 26.332-40.486 40.25-87.116 40.25-134.849V131.23c0-5.522-4.478-10-10-10zM253.816 445.664l-.381.101c-5.338 1.417-8.517 6.892-7.1 12.23 1.188 4.48 5.233 7.438 9.658 7.438.849 0 1.713-.108 2.572-.337l.381-.101c5.338-1.417 8.517-6.892 7.1-12.23-1.417-5.341-6.895-8.518-12.23-7.101z" fill="#1c2530" opacity="1" data-original="#000000" class=""></path><path d="M390.108 257.86c6.508-10.578 4.875-24.052-3.973-32.767l-10.39-10.235a6.49 6.49 0 0 1-1.923-5.092l1.041-14.621c.886-12.445-6.838-23.652-18.783-27.254l-13.76-4.148a6.489 6.489 0 0 1-4.088-3.638l-5.759-13.287c-4.918-11.341-17.294-17.841-29.417-15.464l-13.962 2.74a6.49 6.49 0 0 1-5.334-1.321l-11.112-8.972c-9.647-7.787-23.648-7.789-33.294 0l-11.114 8.973a6.487 6.487 0 0 1-5.334 1.32l-13.962-2.739c-12.128-2.381-24.501 4.122-29.416 15.461l-5.763 13.291a6.49 6.49 0 0 1-4.087 3.636l-13.757 4.148c-11.945 3.601-19.669 14.808-18.783 27.254l1.041 14.62a6.493 6.493 0 0 1-1.922 5.092l-10.391 10.236c-8.848 8.716-10.482 22.19-3.973 32.767l7.683 12.485a6.494 6.494 0 0 1 .653 5.396l-4.497 13.981c-3.807 11.842 1.005 24.548 11.7 30.898l12.453 7.394a6.493 6.493 0 0 1 3.09 4.497l2.45 14.376c2.104 12.34 12.305 21.393 24.808 22.014l14.264.709a6.49 6.49 0 0 1 4.853 2.559l8.696 11.441c5.12 6.737 13.079 10.437 21.188 10.437a26.21 26.21 0 0 0 11.122-2.463l12.894-6.021a6.488 6.488 0 0 1 5.5 0l12.893 6.021c11.228 5.242 24.817 1.888 32.312-7.977l8.693-11.439a6.487 6.487 0 0 1 4.853-2.559l14.267-.709c12.503-.621 22.704-9.674 24.808-22.014l2.45-14.375a6.488 6.488 0 0 1 3.09-4.497l12.453-7.394c10.695-6.35 15.507-19.056 11.699-30.899l-4.495-13.978a6.495 6.495 0 0 1 .651-5.397l7.684-12.486zm-17.033-10.48-7.685 12.487a26.477 26.477 0 0 0-2.657 21.999l4.495 13.979a6.468 6.468 0 0 1-2.87 7.58l-12.453 7.394a26.456 26.456 0 0 0-12.594 18.333l-2.45 14.375a6.462 6.462 0 0 1-6.085 5.399l-14.267.709a26.446 26.446 0 0 0-19.784 10.434l-8.693 11.44c-1.839 2.419-5.171 3.243-7.925 1.957l-12.893-6.021a26.435 26.435 0 0 0-22.426 0l-12.894 6.021c-2.756 1.285-6.087.461-7.925-1.957l-8.697-11.443a26.442 26.442 0 0 0-19.782-10.431l-14.264-.709a6.462 6.462 0 0 1-6.085-5.399l-2.45-14.376a26.461 26.461 0 0 0-12.594-18.333l-12.453-7.394a6.469 6.469 0 0 1-2.871-7.579l4.497-13.982a26.473 26.473 0 0 0-2.659-21.998l-7.684-12.486a6.47 6.47 0 0 1 .975-8.037l10.392-10.236a26.465 26.465 0 0 0 7.835-20.76l-1.041-14.62a6.464 6.464 0 0 1 4.607-6.685l13.757-4.148a26.448 26.448 0 0 0 16.663-14.83l5.763-13.29c1.039-2.396 3.435-3.912 5.981-3.912.409 0 .822.039 1.234.12l13.961 2.739a26.421 26.421 0 0 0 21.75-5.385l11.114-8.972c2.365-1.91 5.8-1.91 8.167 0l11.112 8.972a26.441 26.441 0 0 0 21.75 5.386l13.961-2.74c2.971-.585 6.01 1.012 7.216 3.793l5.759 13.287a26.45 26.45 0 0 0 16.664 14.832l13.76 4.148a6.466 6.466 0 0 1 4.607 6.685l-1.041 14.621a26.465 26.465 0 0 0 7.836 20.76l10.391 10.236a6.47 6.47 0 0 1 .975 8.037z" fill="#1c2530" opacity="1" data-original="#000000" class=""></path><path d="M282.035 204.866c-4.808-2.716-10.908-1.019-13.624 3.792l-53.769 95.245c-2.715 4.81-1.018 10.909 3.792 13.624a9.996 9.996 0 0 0 13.624-3.792l53.769-95.245c2.715-4.81 1.018-10.909-3.792-13.624zM290.942 264.536c-16.542 0-30 13.458-30 30s13.458 30 30 30 30-13.458 30-30-13.458-30-30-30zm0 40c-5.514 0-10-4.486-10-10s4.486-10 10-10 10 4.486 10 10-4.486 10-10 10zM221.059 187.463c-16.542 0-30 13.458-30 30s13.458 30 30 30 30-13.458 30-30c0-16.543-13.458-30-30-30zm0 40c-5.514 0-10-4.486-10-10s4.486-10 10-10 10 4.486 10 10-4.486 10-10 10z" fill="#1c2530" opacity="1" data-original="#000000" class=""></path></g></svg>