<svg xmlns="http://www.w3.org/2000/svg" version="1.1" xmlns:xlink="http://www.w3.org/1999/xlink" width="512" height="512" x="0" y="0" viewBox="0 0 512 512" style="enable-background:new 0 0 512 512" xml:space="preserve" class=""><g><g data-name="12"><path d="M218 471.16H114.73a61 61 0 0 1-60.81-60.59V205.23a37.92 37.92 0 0 1 13.69-28.95l18.18-13.46a20.2 20.2 0 0 0-23.34-32.09l-18.63 13.91a78.07 78.07 0 0 0-30.29 60.59v205.56A101.42 101.42 0 0 0 114.73 512H218a20.2 20.2 0 1 0 0-40.39z" data-name="12-2" fill="#fa5100" opacity="1" data-original="#000000"></path><path d="M498.47 204.78a78.76 78.76 0 0 0-29.39-60.59L314 20.54a93.13 93.13 0 0 0-116.69 0l-49.14 35.68a20.58 20.58 0 0 0 24 33.44L222 52.41a53 53 0 0 1 67.32 0l155.07 123.65a37.88 37.88 0 0 1 14.36 29.17v205.56a60.59 60.59 0 0 1-60.59 60.59h-46a8.53 8.53 0 0 1-8.53-8.53v-92.68a53.63 53.63 0 0 0-53.41-53.63H222.9a53.62 53.62 0 0 0-53.63 53.63v35.46a20.2 20.2 0 1 0 40.39 0v-35.46a13 13 0 0 1 13-13.24H290a13 13 0 0 1 13 13v92.9a49.15 49.15 0 0 0 49.15 48.93H397a101.21 101.21 0 0 0 101.25-101.19z" data-name="12-1" fill="#fa5100" opacity="1" data-original="#000000"></path></g></g></svg>